<svg width="19" height="24" viewBox="0 0 19 24" fill="none" xmlns="http://www.w3.org/2000/svg">
<rect y="2" width="19" height="22" rx="5" fill="#284A68"/>
<path d="M6.715 16V14.895C6.715 14.4877 6.73667 14.141 6.78 13.855C6.832 13.5603 6.936 13.3047 7.092 13.088C7.248 12.8627 7.47767 12.646 7.781 12.438C8.093 12.23 8.509 12.0047 9.029 11.762C9.549 11.5193 10.199 11.2377 10.979 10.917V8.876C10.8403 8.84133 10.6757 8.81967 10.485 8.811C10.303 8.79367 10.0603 8.785 9.757 8.785C9.34967 8.785 8.90767 8.80667 8.431 8.85C7.95433 8.89333 7.50367 8.954 7.079 9.032L6.91 8.018C7.28267 7.90533 7.69867 7.823 8.158 7.771C8.626 7.71033 9.10267 7.68 9.588 7.68C10.55 7.68 11.252 7.849 11.694 8.187C12.1447 8.51633 12.37 9.03633 12.37 9.747C12.37 10.085 12.3397 10.3797 12.279 10.631C12.227 10.8737 12.1187 11.099 11.954 11.307C11.7893 11.515 11.5423 11.723 11.213 11.931C10.8923 12.1303 10.4633 12.3513 9.926 12.594C9.39733 12.8367 8.73867 13.1227 7.95 13.452V14.921H12.227V16H6.715Z" fill="white"/>
</svg>
