<svg width="19" height="24" viewBox="0 0 19 24" fill="none" xmlns="http://www.w3.org/2000/svg">
<rect y="2" width="19" height="22" rx="5" fill="#284A68"/>
<path d="M8.886 16.195C8.40933 16.195 7.95433 16.1647 7.521 16.104C7.09633 16.0433 6.71933 15.961 6.39 15.857L6.546 14.843C6.90133 14.921 7.30433 14.9817 7.755 15.025C8.21433 15.0683 8.64767 15.09 9.055 15.09C9.757 15.09 10.2293 15.0597 10.472 14.999V12.516L8.21 12.23V11.541L10.472 11.177V8.876C10.2467 8.81533 9.86533 8.785 9.328 8.785C8.92067 8.785 8.48733 8.80667 8.028 8.85C7.57733 8.89333 7.17433 8.954 6.819 9.032L6.676 8.018C7.014 7.90533 7.40833 7.823 7.859 7.771C8.30967 7.71033 8.782 7.68 9.276 7.68C10.1427 7.68 10.7883 7.862 11.213 8.226C11.6463 8.59 11.863 9.14033 11.863 9.877C11.863 10.3277 11.772 10.7263 11.59 11.073C11.4167 11.4197 11.1697 11.6797 10.849 11.853V11.918C11.1957 12.1087 11.4513 12.3643 11.616 12.685C11.7807 12.997 11.863 13.3957 11.863 13.881C11.863 14.453 11.7677 14.908 11.577 15.246C11.395 15.584 11.083 15.8267 10.641 15.974C10.2077 16.1213 9.62267 16.195 8.886 16.195Z" fill="white"/>
</svg>
