<svg width="23" height="25" viewBox="0 0 23 25" fill="none" xmlns="http://www.w3.org/2000/svg">
<path fill-rule="evenodd" clip-rule="evenodd" d="M8.5629 23.2879L20.2779 8.13817C20.9146 7.3212 21.141 6.37667 20.9288 5.41494C20.7448 4.54064 20.2072 3.70934 19.4007 3.0787L17.4341 1.51642C15.7221 0.154807 13.5998 0.298135 12.383 1.86041L11.0672 3.56744C10.8974 3.781 10.9399 4.09632 11.1521 4.26832C11.1521 4.26832 14.477 6.93422 14.5478 6.99155C14.7741 7.20654 14.9439 7.4932 14.9864 7.83718C15.0571 8.51082 14.5902 9.14147 13.8969 9.22746C13.5715 9.27046 13.2602 9.17013 13.0339 8.98381L9.53915 6.20324C9.36937 6.07568 9.11469 6.10292 8.97321 6.27491L0.667987 17.0245C0.130341 17.6981 -0.0535906 18.5724 0.130341 19.4181L1.19149 24.0189C1.24808 24.2626 1.46031 24.4346 1.71498 24.4346L6.38402 24.3772C7.23293 24.3629 8.02525 23.9759 8.5629 23.2879ZM14.0397 22.271H21.6531C22.3959 22.271 23 22.883 23 23.6355C23 24.3894 22.3959 25 21.6531 25H14.0397C13.2969 25 12.6928 24.3894 12.6928 23.6355C12.6928 22.883 13.2969 22.271 14.0397 22.271Z" fill="#F7F7F8"/>
</svg>
