<svg width="25" height="26" viewBox="0 0 25 26" fill="none" xmlns="http://www.w3.org/2000/svg">
<path fill-rule="evenodd" clip-rule="evenodd" d="M0.0567627 12.995V19.0971C0.0567627 22.4672 2.78876 25.1992 6.15885 25.1992H12.2609H18.363C21.7331 25.1992 24.4651 22.4672 24.4651 19.0971V12.995V6.89292C24.4651 3.52283 21.7331 0.790833 18.363 0.790833H12.2609H6.15885C2.78876 0.790833 0.0567627 3.52283 0.0567627 6.89292V12.995Z" fill="#284A68"/>
<path fill-rule="evenodd" clip-rule="evenodd" d="M8.46399 10.2829C8.46399 11.4812 9.43537 12.4526 10.6336 12.4526C11.8319 12.4526 12.8032 11.4812 12.8032 10.2829C12.8032 9.08469 11.8319 8.11331 10.6336 8.11331C9.43537 8.11331 8.46399 9.08469 8.46399 10.2829ZM13.888 12.4525C13.888 13.3512 14.6165 14.0797 15.5152 14.0797C16.4139 14.0797 17.1424 13.3512 17.1424 12.4525C17.1424 11.5538 16.4139 10.8253 15.5152 10.8253C14.6165 10.8253 13.888 11.5538 13.888 12.4525Z" fill="white"/>
<path fill-rule="evenodd" clip-rule="evenodd" d="M10.6242 13.5374C8.06328 13.5374 5.96218 14.8536 5.75194 17.4423C5.74049 17.5833 6.01016 17.8767 6.14619 17.8767H15.1063C15.5138 17.8767 15.5201 17.5488 15.5138 17.4427C15.3548 14.7813 13.2212 13.5374 10.6242 13.5374ZM18.4743 17.8766H16.3827C16.3827 16.6557 15.9793 15.529 15.2985 14.6225C17.1463 14.6426 18.6551 15.5768 18.7686 17.5511C18.7732 17.6307 18.7686 17.8766 18.4743 17.8766Z" fill="white"/>
</svg>
