<svg width="30" height="30" viewBox="0 0 30 30" fill="none" xmlns="http://www.w3.org/2000/svg">
<path fill-rule="evenodd" clip-rule="evenodd" d="M26.941 13.2058C26.7763 13.3659 26.5527 13.4573 26.3174 13.4573C25.4467 13.4573 24.7407 14.1432 24.7407 14.9776C24.7407 15.8178 25.4384 16.5002 26.3009 16.5093C26.7869 16.5139 27.1999 16.8431 27.1999 17.3152V20.2472C27.1999 22.7151 25.1408 24.7167 22.5992 24.7167H18.7633C18.3667 24.7167 18.0455 24.4046 18.0455 24.0194V21.5503C18.0455 21.0702 17.6572 20.693 17.163 20.693C16.6806 20.693 16.2805 21.0702 16.2805 21.5503V24.0194C16.2805 24.4046 15.9593 24.7167 15.5639 24.7167H7.46732C4.9375 24.7167 2.86658 22.7163 2.86658 20.2472V17.3152C2.86658 16.8431 3.27958 16.5139 3.76555 16.5093C4.62921 16.5002 5.3258 15.8178 5.3258 14.9776C5.3258 14.166 4.64333 13.5488 3.74907 13.5488C3.51374 13.5488 3.29017 13.4573 3.12544 13.2973C2.96071 13.1373 2.86658 12.9201 2.86658 12.6915V9.73088C2.86658 7.26639 4.94221 5.25 7.47908 5.25H15.5639C15.9593 5.25 16.2805 5.56206 16.2805 5.94728V8.87357C16.2805 9.34223 16.6806 9.73088 17.163 9.73088C17.6572 9.73088 18.0455 9.34223 18.0455 8.87357V5.94728C18.0455 5.56206 18.3667 5.25 18.7633 5.25H22.5992C25.1408 5.25 27.1999 7.25039 27.1999 9.71945V12.6C27.1999 12.8286 27.1058 13.0458 26.941 13.2058ZM17.163 18.4754C17.6572 18.4754 18.0455 18.0868 18.0455 17.6181V13.0458C18.0455 12.5771 17.6572 12.1885 17.163 12.1885C16.6806 12.1885 16.2805 12.5771 16.2805 13.0458V17.6181C16.2805 18.0868 16.6806 18.4754 17.163 18.4754Z" fill="#284A68"/>
</svg>
