<svg width="30" height="30" viewBox="0 0 30 30" fill="none" xmlns="http://www.w3.org/2000/svg">
<path fill-rule="evenodd" clip-rule="evenodd" d="M6.15638 2.96043H10.2814C12.0022 2.96043 13.3812 4.36391 13.3812 6.08592V10.2463C13.3812 11.9793 12.0022 13.3706 10.2814 13.3706H6.15638C4.44779 13.3706 3.05652 11.9793 3.05652 10.2463V6.08592C3.05652 4.36391 4.44779 2.96043 6.15638 2.96043ZM6.15639 16.9582H10.2814C12.0022 16.9582 13.3813 18.3507 13.3813 20.0837V24.2441C13.3813 25.9649 12.0022 27.3684 10.2814 27.3684H6.15639C4.44781 27.3684 3.05654 25.9649 3.05654 24.2441V20.0837C3.05654 18.3507 4.44781 16.9582 6.15639 16.9582ZM24.3651 2.96043H20.2401C18.5193 2.96043 17.1403 4.36391 17.1403 6.08592V10.2463C17.1403 11.9793 18.5193 13.3706 20.2401 13.3706H24.3651C26.0737 13.3706 27.465 11.9793 27.465 10.2463V6.08592C27.465 4.36391 26.0737 2.96043 24.3651 2.96043ZM20.2401 16.9582H24.3651C26.0737 16.9582 27.465 18.3507 27.465 20.0837V24.2441C27.465 25.9649 26.0737 27.3684 24.3651 27.3684H20.2401C18.5193 27.3684 17.1403 25.9649 17.1403 24.2441V20.0837C17.1403 18.3507 18.5193 16.9582 20.2401 16.9582Z" fill="#284A68"/>
</svg>
