<svg width="23" height="25" viewBox="0 0 23 25" fill="none" xmlns="http://www.w3.org/2000/svg">
<path fill-rule="evenodd" clip-rule="evenodd" d="M21.6089 4.05371C22.0952 4.05371 22.5 4.45746 22.5 4.9712V5.4462C22.5 5.94744 22.0952 6.36369 21.6089 6.36369H0.892317C0.404825 6.36369 0 5.94744 0 5.4462V4.9712C0 4.45746 0.404825 4.05371 0.892317 4.05371H4.53696C5.27731 4.05371 5.92163 3.52747 6.08818 2.78497L6.27904 1.93248C6.57567 0.771242 7.55187 0 8.66909 0H13.8309C14.936 0 15.9231 0.771243 16.2088 1.87123L16.413 2.78372C16.5784 3.52747 17.2227 4.05371 17.9643 4.05371H21.6089ZM19.7576 21.4175C20.1381 17.8713 20.8043 9.44639 20.8043 9.36139C20.8286 9.10389 20.7447 8.86014 20.5782 8.66389C20.3995 8.48015 20.1733 8.3714 19.9241 8.3714H2.58594C2.33551 8.3714 2.09724 8.48015 1.9319 8.66389C1.76414 8.86014 1.68147 9.10389 1.69363 9.36139C1.69586 9.37701 1.71976 9.67377 1.75973 10.1699C1.93727 12.374 2.43175 18.5127 2.75128 21.4175C2.9774 23.5575 4.38152 24.9025 6.41537 24.9512C7.98483 24.9875 9.6017 25 11.255 25C12.8123 25 14.3939 24.9875 16.012 24.9512C18.1164 24.915 19.5193 23.5938 19.7576 21.4175Z" fill="#F7F7F8"/>
</svg>
