<svg width="22" height="21" viewBox="0 0 22 21" fill="none" xmlns="http://www.w3.org/2000/svg">
<g opacity="0.4">
<path fill-rule="evenodd" clip-rule="evenodd" d="M8.22168 9.7028C7.77811 9.7028 7.42737 10.0475 7.42737 10.4835C7.42737 10.9093 7.77811 11.2642 8.22168 11.2642H14.4111V16.1106C14.4111 18.5946 12.3583 20.6224 9.82062 20.6224H4.79686C2.26951 20.6224 0.216675 18.6047 0.216675 16.1207V4.85641C0.216675 2.36224 2.27982 0.344604 4.80718 0.344604H9.84125C12.3583 0.344604 14.4111 2.36224 14.4111 4.84627V9.7028H8.22168ZM18.0917 6.97539L21.0522 9.9258C21.2043 10.0779 21.2854 10.2705 21.2854 10.4834C21.2854 10.6862 21.2043 10.889 21.0522 11.0309L18.0917 13.9814C17.9396 14.1334 17.7368 14.2146 17.5442 14.2146C17.3414 14.2146 17.1386 14.1334 16.9866 13.9814C16.6824 13.6772 16.6824 13.1804 16.9866 12.8762L18.6088 11.2641H14.4113V9.70275H18.6088L16.9866 8.09067C16.6824 7.7865 16.6824 7.28969 16.9866 6.98553C17.2907 6.67122 17.7875 6.67122 18.0917 6.97539Z" fill="#030229"/>
</g>
</svg>
