<svg width="30" height="31" viewBox="0 0 30 31" fill="none" xmlns="http://www.w3.org/2000/svg">
<path fill-rule="evenodd" clip-rule="evenodd" d="M10.1473 3.25256H20.3756C24.1455 3.25256 26.2446 5.42491 26.2446 9.14718V21.7541C26.2446 25.5374 24.1455 27.6609 20.3756 27.6609H10.1473C6.43724 27.6609 4.2771 25.5374 4.2771 21.7541V9.14718C4.2771 5.42491 6.43724 3.25256 10.1473 3.25256ZM10.4766 8.93971V8.9275H14.1244C14.6504 8.9275 15.0776 9.35465 15.0776 9.87821C15.0776 10.4164 14.6504 10.8436 14.1244 10.8436H10.4766C9.9506 10.8436 9.52467 10.4164 9.52467 9.89163C9.52467 9.36685 9.9506 8.93971 10.4766 8.93971ZM10.4766 16.3598H20.0447C20.5694 16.3598 20.9966 15.9327 20.9966 15.4079C20.9966 14.8831 20.5694 14.4548 20.0447 14.4548H10.4766C9.9506 14.4548 9.52467 14.8831 9.52467 15.4079C9.52467 15.9327 9.9506 16.3598 10.4766 16.3598ZM10.4767 21.9372H20.0448C20.5318 21.8883 20.8991 21.4722 20.8991 20.9852C20.8991 20.4849 20.5318 20.0699 20.0448 20.0211H10.4767C10.1106 19.9845 9.7567 20.1553 9.56144 20.4727C9.36617 20.7778 9.36617 21.1805 9.56144 21.4978C9.7567 21.8029 10.1106 21.986 10.4767 21.9372Z" fill="#284A68"/>
</svg>
