<svg width="152" height="40" viewBox="0 0 152 40" fill="none" xmlns="http://www.w3.org/2000/svg">
<path d="M36.1571 1.22202V15.6877C36.1571 17.6849 35.3477 19.4928 34.0391 20.802C33.0373 21.804 31.743 22.5131 30.2954 22.7902V28.7828C30.2954 29.539 29.6821 30.1523 28.9261 30.1523V8.4546C28.9261 4.46076 32.1633 1.22202 36.1576 1.22202H36.1571Z" fill="#284A68"/>
<path d="M14.4631 1.22253H14.6005C18.5155 1.22253 21.6941 4.40153 21.6941 8.31711V37.3844H21.5566C17.6416 37.3844 14.4631 34.2054 14.4631 30.2898V1.22253Z" fill="#284A68"/>
<path d="M7.2314 8.45459V30.1523C7.2314 32.1495 6.42196 33.9574 5.11344 35.2666C3.80491 36.5754 1.9973 37.3849 -0.00012207 37.3849V22.9192C-0.00012207 19.3934 2.52282 16.4571 5.86154 15.8172V9.82465C5.86154 9.0685 6.47483 8.45512 7.23087 8.45512L7.2314 8.45459Z" fill="#284A68"/>
<path d="M52.0232 1.87451C52.0232 0.667843 52.6138 0.0253812 53.8203 0H64.6554V3.02988H55.5407V6.77889H62.3445V7.93427C62.3698 9.14093 61.7539 9.73157 60.4956 9.73157H55.5401V14.251H64.6549V17.4607H52.0227V1.87451H52.0232Z" fill="#284A68"/>
<path d="M77.3643 0H79.2898L86.4018 11.9921V0H89.9193V17.4617H86.1962L79.0841 5.46965V17.4617H75.5667V1.87451C75.5667 0.873007 76.3629 0 77.3638 0H77.3643Z" fill="#284A68"/>
<path d="M104.04 10.7336C104.04 15.4069 101.96 17.7695 97.8524 17.7695C93.7444 17.7695 91.6904 15.4069 91.6904 10.7336C91.6904 6.06029 93.7444 3.67181 97.8524 3.67181C101.96 3.67181 104.04 6.00847 104.04 10.7336ZM95.1566 10.7336C95.1819 13.3785 96.0807 14.7137 97.827 14.7137C99.5733 14.7137 100.446 13.3267 100.472 10.6305C100.472 7.98556 99.5987 6.67578 97.8529 6.67578C96.1071 6.67578 95.1571 8.03685 95.1571 10.7331L95.1566 10.7336Z" fill="#284A68"/>
<path d="M109.457 6.31674H109.098V13.8407C109.098 14.4054 109.431 14.7137 110.099 14.7137H111.152V17.3073C110.048 17.4099 108.841 17.4099 107.557 17.2814C106.273 17.1529 105.657 16.3571 105.683 14.8422V0H107.455C108.353 0 109.098 0.821716 109.098 1.72063V3.87751H111.152V4.62202C111.152 5.59761 110.407 6.31674 109.457 6.31674Z" fill="#284A68"/>
<path d="M116.107 7.42138H112.692C113.103 4.90494 114.875 3.67236 118.007 3.67236C121.756 3.67236 123.656 4.90494 123.733 7.42138V12.0434C123.733 15.7924 121.474 17.4618 117.802 17.7182C114.541 17.9752 112.282 16.4597 112.282 13.4558C112.359 10.1943 114.721 9.32126 118.162 8.98761C119.625 8.80782 120.37 8.37158 120.37 7.62654C120.292 6.85612 119.574 6.47117 118.162 6.47117C116.955 6.47117 116.288 6.77944 116.108 7.42138H116.107ZM120.42 11.8895V10.631C119.625 10.9647 118.7 11.2471 117.699 11.4528C116.338 11.7097 115.645 12.3517 115.645 13.3532C115.722 14.4319 116.286 14.9453 117.365 14.9453C119.265 14.9453 120.42 13.8153 120.42 11.8895Z" fill="#284A68"/>
<path d="M127.147 0C128.277 0 128.816 0.564732 128.79 1.66934V2.67084H125.375V0H127.147ZM127.147 3.87751C128.251 3.87751 128.79 4.41686 128.79 5.52094V17.4617H125.375V3.87751H127.147Z" fill="#284A68"/>
<path d="M130.716 10.4512C130.818 6.06028 133.155 3.8775 137.699 3.8775H138.187V7.42135H137.032C135.132 7.42135 134.182 8.42285 134.182 10.3999V17.4617H130.716V10.4512H130.716Z" fill="#284A68"/>
<path d="M145.838 17.77C141.731 17.6415 139.677 15.2536 139.677 10.6316C139.677 6.00955 141.756 3.69827 145.89 3.67236C150.203 3.67236 152.231 6.3173 151.975 11.6325H143.193C143.322 13.7127 144.22 14.7655 145.889 14.7655C146.685 14.7655 147.43 14.4313 148.097 13.7899C148.405 13.4563 148.79 13.3019 149.252 13.3019H151.768C151.024 16.1779 149.175 17.77 145.837 17.77H145.838ZM143.245 9.1933H148.355C148.149 7.396 147.302 6.47117 145.838 6.47117C144.375 6.47117 143.502 7.39547 143.245 9.1933Z" fill="#284A68"/>
<path d="M69.5592 9.39844H73.8469C73.8469 11.2127 72.3745 12.6853 70.5605 12.6853H66.2728C66.2728 10.8711 67.7452 9.39844 69.5592 9.39844Z" fill="#284A68"/>
<path d="M56.7476 36.8128C55.8261 36.8128 55.0594 36.7583 54.4483 36.6494C53.8366 36.5404 53.3549 36.3665 53.0033 36.128C52.6518 35.889 52.4001 35.5686 52.2494 35.1667C52.0987 34.7643 52.0231 34.2699 52.0231 33.6835C52.0231 33.3985 52.0374 33.114 52.067 32.829C52.0961 32.5445 52.1442 32.2595 52.2113 31.9745C52.2785 31.69 52.3578 31.4134 52.4503 31.1448L54.4107 31.4589C54.3018 31.7772 54.2114 32.0871 54.1406 32.389C54.0692 32.6904 54.0338 32.9966 54.0338 33.3065C54.0338 33.5661 54.0422 33.7966 54.0591 33.9976C54.0761 34.1985 54.1051 34.383 54.1469 34.5507H57.6781C58.1222 34.5507 58.4759 34.5316 58.7397 34.4941C59.0035 34.4565 59.1939 34.3894 59.3112 34.2932C59.4286 34.1969 59.4873 34.0605 59.4873 33.8849V33.1685H61.4979V33.6835C61.4979 34.2699 61.4223 34.7622 61.2716 35.1603C61.121 35.558 60.8672 35.8784 60.5114 36.1217C60.155 36.3644 59.6697 36.5404 59.0537 36.6494C58.4378 36.7583 57.6696 36.8128 56.7481 36.8128H56.7476ZM55.5665 39.4519C55.4406 39.4519 55.2942 39.389 55.1266 39.2631C54.959 39.1373 54.8125 38.9908 54.6867 38.8232C54.5609 38.6555 54.498 38.5091 54.498 38.3832C54.498 38.2405 54.5588 38.0876 54.6804 37.9243C54.8014 37.7609 54.9463 37.6181 55.1139 37.497C55.2815 37.3754 55.4322 37.3146 55.5665 37.3146C55.7087 37.3146 55.862 37.3754 56.0248 37.497C56.1882 37.6186 56.3304 37.7609 56.452 37.9243C56.5736 38.0876 56.6344 38.2405 56.6344 38.3832C56.6344 38.5091 56.5715 38.6555 56.4457 38.8232C56.3199 38.9908 56.1755 39.1373 56.0122 39.2631C55.8488 39.389 55.7002 39.4519 55.5659 39.4519H55.5665ZM59.4868 33.1679C59.0093 33.1679 58.5065 33.1325 57.9789 33.0611C57.4513 32.9903 56.94 32.8834 56.4457 32.7407L56.747 30.579C57.1827 30.688 57.5745 30.7699 57.9218 30.8239C58.2692 30.8783 58.6234 30.9058 58.9834 30.9058H62.3761V33.1679H59.4857H59.4868ZM57.9662 39.4519C57.8404 39.4519 57.6939 39.389 57.5263 39.2631C57.3587 39.1373 57.2123 38.9908 57.0865 38.8232C56.9606 38.6555 56.8977 38.5091 56.8977 38.3832C56.8977 38.2405 56.9585 38.0876 57.0801 37.9243C57.2012 37.7609 57.3461 37.6181 57.5137 37.497C57.6812 37.3754 57.8319 37.3146 57.9662 37.3146C58.1084 37.3146 58.2618 37.3754 58.4246 37.497C58.588 37.6186 58.7302 37.7609 58.8518 37.9243C58.9729 38.0876 59.0342 38.2405 59.0342 38.3832C59.0342 38.5091 58.9713 38.6555 58.846 38.8232C58.7201 38.9908 58.5758 39.1373 58.4124 39.2631C58.2491 39.389 58.1005 39.4519 57.9662 39.4519ZM62.3766 33.1679V30.9058C62.4522 30.9058 62.5125 31.0105 62.559 31.2199C62.605 31.4293 62.6283 31.7016 62.6283 32.0369C62.6283 32.3885 62.605 32.6651 62.559 32.8665C62.513 33.0675 62.4522 33.1679 62.3766 33.1679Z" fill="#284A68"/>
<path d="M62.3771 33.1679C62.3015 33.1679 62.2413 33.0675 62.1947 32.8665C62.1487 32.6656 62.1255 32.389 62.1255 32.0369C62.1255 31.6847 62.1487 31.4293 62.1947 31.2199C62.2407 31.0105 62.3015 30.9058 62.3771 30.9058V33.1679ZM62.3771 33.1679V30.9058H65.0285L64.0108 31.9237V27.261H66.0214V33.1679H62.3771ZM65.0159 25.8158C64.89 25.8158 64.7436 25.7529 64.576 25.6271C64.4084 25.5012 64.2619 25.3547 64.1361 25.1871C64.0103 25.0195 63.9479 24.873 63.9479 24.7472C63.9479 24.6049 64.0087 24.4516 64.1303 24.2882C64.2514 24.1248 64.3962 23.9826 64.5638 23.861C64.7314 23.7399 64.8821 23.6785 65.0164 23.6785C65.1586 23.6785 65.3119 23.7393 65.4753 23.861C65.6387 23.9826 65.7809 24.1248 65.9025 24.2882C66.0236 24.4516 66.0849 24.6044 66.0849 24.7472C66.0849 24.873 66.022 25.0195 65.8961 25.1871C65.7703 25.3547 65.626 25.5012 65.4626 25.6271C65.2992 25.7529 65.1501 25.8158 65.0164 25.8158H65.0159Z" fill="#284A68"/>
<path d="M70.2939 33.1679C69.8165 33.1679 69.402 33.1071 69.0499 32.9855C68.6983 32.8644 68.4112 32.6756 68.1891 32.4197C67.9671 32.1643 67.8016 31.8375 67.6927 31.4394C67.5838 31.0417 67.5293 30.5701 67.5293 30.0254C67.5293 29.5146 67.5938 29.0726 67.7239 28.6998C67.8534 28.327 68.0506 28.0214 68.3144 27.7823C68.5783 27.5433 68.9177 27.3657 69.3322 27.2483C69.7467 27.1309 70.2347 27.0722 70.7962 27.0722C71.4412 27.0722 71.9963 27.1097 72.461 27.1854C72.9257 27.261 73.3762 27.3905 73.8118 27.5751V30.9053L72.681 33.1674H70.2934L70.2939 33.1679ZM71.0103 36.7245L69.6531 35.2412C69.9798 34.9647 70.2749 34.6527 70.5392 34.3048C70.803 33.9569 71.0293 33.5925 71.2175 33.2113C71.4063 32.83 71.5506 32.4446 71.6511 32.0548C71.7515 31.6651 71.8017 31.2818 71.8017 30.9048H73.8124C73.8124 31.4161 73.7452 31.9332 73.6115 32.4567C73.4772 32.9802 73.289 33.4936 73.0458 33.996C72.8026 34.4988 72.5097 34.9806 72.166 35.4411C71.8224 35.9017 71.4369 36.3289 71.0097 36.7229L71.0103 36.7245ZM69.6658 30.9058H71.3122C71.4961 30.9058 71.6241 30.8725 71.6955 30.8054C71.7663 30.7382 71.8023 30.6129 71.8023 30.4283V29.3348H70.4076C70.1226 29.3348 69.928 29.3687 69.8234 29.4353C69.7187 29.5025 69.6663 29.6283 69.6663 29.8123V30.9058H69.6658Z" fill="#284A68"/>
<path d="M75.6342 36.7499L74.9056 34.9399C75.2403 34.7971 75.492 34.6506 75.6596 34.4999C75.8272 34.3492 75.9424 34.1435 76.0053 33.8839C76.0682 33.6243 76.0994 33.2679 76.0994 32.8158V27.261H78.1101V32.8158C78.1101 33.528 78.0281 34.1308 77.8653 34.6252C77.7019 35.1196 77.4402 35.5363 77.0802 35.8758C76.7201 36.2153 76.2385 36.5061 75.6352 36.7493L75.6342 36.7499ZM78.0968 29.5236V27.2615H80.1826V29.5236H78.0968ZM79.9817 25.8164C79.8558 25.8164 79.7094 25.7535 79.5418 25.6276C79.3742 25.5018 79.2277 25.3553 79.1019 25.1877C78.9761 25.0201 78.9132 24.8736 78.9132 24.7477C78.9132 24.6055 78.974 24.4521 79.0956 24.2888C79.2166 24.1254 79.3615 23.9831 79.5291 23.8615C79.6967 23.7404 79.8474 23.6791 79.9817 23.6791C80.1239 23.6791 80.2772 23.7399 80.44 23.8615C80.6034 23.9831 80.7456 24.1254 80.8672 24.2888C80.9883 24.4521 81.0496 24.605 81.0496 24.7477C81.0496 24.8736 80.9867 25.0201 80.8614 25.1877C80.7356 25.3553 80.5912 25.5018 80.4279 25.6276C80.2645 25.7535 80.1159 25.8164 79.9817 25.8164ZM80.1826 33.1685V27.2615H82.1932V30.9064H83.0729V33.1685H80.1826ZM82.3814 25.8164C82.2556 25.8164 82.1091 25.7535 81.9415 25.6276C81.7739 25.5018 81.6275 25.3553 81.5017 25.1877C81.3758 25.0201 81.3134 24.8736 81.3134 24.7477C81.3134 24.6055 81.3742 24.4521 81.4958 24.2888C81.6169 24.1254 81.7618 23.9831 81.9294 23.8615C82.097 23.7404 82.2476 23.6791 82.3819 23.6791C82.5242 23.6791 82.677 23.7399 82.8403 23.8615C83.0037 23.9831 83.1459 24.1254 83.2675 24.2888C83.3886 24.4521 83.4499 24.605 83.4499 24.7477C83.4499 24.8736 83.387 25.0201 83.2617 25.1877C83.1359 25.3553 82.9915 25.5018 82.8282 25.6276C82.6648 25.7535 82.5162 25.8164 82.3819 25.8164H82.3814ZM83.0724 33.1685V30.9064C83.148 30.9064 83.2083 31.0111 83.2548 31.2205C83.3008 31.4299 83.3241 31.7022 83.3241 32.0374C83.3241 32.3891 83.3008 32.6656 83.2548 32.8671C83.2088 33.068 83.148 33.1685 83.0724 33.1685Z" fill="#284A68"/>
<path d="M83.0729 33.1679C82.9973 33.1679 82.937 33.0675 82.8905 32.8665C82.8445 32.6656 82.8212 32.389 82.8212 32.0369C82.8212 31.6847 82.8445 31.4293 82.8905 31.2199C82.9365 31.0105 82.9973 30.9058 83.0729 30.9058V33.1679ZM83.0729 33.1679V30.9058H89.3178V29.6489H85.5985C85.1126 29.6489 84.7377 29.5088 84.4739 29.228C84.2101 28.9473 84.0779 28.5475 84.0779 28.0277C84.0779 27.7009 84.1282 27.3514 84.2286 26.9781C84.3291 26.6053 84.4692 26.2283 84.6494 25.847C84.8297 25.4658 85.0412 25.1015 85.2839 24.7535C85.5266 24.4061 85.7904 24.0979 86.0753 23.8298L87.671 24.697C87.5203 24.8313 87.3569 25.0111 87.1808 25.2374C87.0048 25.4637 86.833 25.7085 86.6659 25.9724C86.4983 26.2362 86.354 26.4922 86.2324 26.7391C86.1108 26.9866 86.0293 27.2023 85.9876 27.3863H88.8151C89.4601 27.3863 89.965 27.4619 90.3292 27.6126C90.6935 27.7633 90.951 28.0208 91.1022 28.3857C91.2529 28.75 91.3285 29.255 91.3285 29.9001V33.1679H83.0729ZM91.3285 33.1679V30.9058H92.2082V33.1679H91.3285ZM92.2082 33.1679V30.9058C92.2838 30.9058 92.3441 31.0105 92.3906 31.2199C92.4366 31.4293 92.4599 31.7016 92.4599 32.0369C92.4599 32.3885 92.4366 32.6651 92.3906 32.8665C92.3446 33.0675 92.2838 33.1679 92.2082 33.1679Z" fill="#284A68"/>
<path d="M92.2083 33.1679C92.1327 33.1679 92.0724 33.0675 92.0259 32.8665C91.9799 32.6656 91.9567 32.389 91.9567 32.0369C91.9567 31.6847 91.9799 31.4293 92.0259 31.2199C92.0719 31.0105 92.1327 30.9058 92.2083 30.9058V33.1679ZM92.2083 33.1679V30.9058H93.842V25.2506H95.8526V33.1679H92.2083Z" fill="#284A68"/>
<path d="M100.917 33.3567C100.045 33.3567 99.3627 33.2726 98.8684 33.1055C98.374 32.9379 98.0267 32.6741 97.8252 32.314C97.6243 31.9539 97.5239 31.4806 97.5239 30.8937C97.5239 30.458 97.5699 30.0661 97.6619 29.7187C97.7539 29.3713 97.9215 29.0715 98.1647 28.8204C98.4073 28.5692 98.7552 28.3677 99.2078 28.217L102.136 27.2494V25.2511H104.146V27.2621C104.146 27.6893 104.138 28.014 104.121 28.2361C104.104 28.4581 104.062 28.6152 103.995 28.7072C103.928 28.7997 103.815 28.8706 103.656 28.9208V29.0086C103.898 29.3185 104.072 29.6331 104.177 29.9514C104.282 30.2697 104.334 30.6261 104.334 31.0195C104.334 31.8492 104.07 32.4462 103.543 32.8105C103.015 33.1748 102.139 33.3572 100.917 33.3572V33.3567ZM99.6223 28.5306L97.6619 26.9094L99.0819 25.2125L102.098 27.7136L99.6223 28.5306ZM99.6598 31.0946H101.733C101.917 31.0946 102.041 31.0692 102.104 31.019C102.167 30.9688 102.198 30.9016 102.198 30.8181C102.198 30.7594 102.173 30.6943 102.122 30.6235C102.072 30.5526 101.992 30.4833 101.884 30.4162L101.18 29.8382L99.6593 30.3157V31.0951L99.6598 31.0946Z" fill="#284A68"/>
<path d="M106.094 33.1679V25.2506H108.104V33.1679H106.094Z" fill="#284A68"/>
<path d="M114.375 36.6996C113.863 36.6996 113.44 36.5822 113.106 36.3474C112.77 36.1127 112.523 35.7526 112.364 35.2666C112.205 34.7807 112.125 34.1562 112.125 33.3942C112.125 33.0426 112.14 32.6968 112.169 32.3573C112.198 32.0178 112.243 31.6831 112.302 31.3521C112.36 31.0211 112.435 30.6922 112.528 30.3654L114.463 30.6668C114.354 31.0354 114.272 31.3939 114.218 31.7413C114.164 32.0892 114.136 32.4345 114.136 32.7782C114.136 33.1219 114.145 33.4381 114.161 33.702C114.178 33.9658 114.216 34.2112 114.275 34.437H120.469V33.1674H122.48V33.9843C122.48 34.6041 122.373 35.1154 122.16 35.5178C121.946 35.9202 121.617 36.2174 121.173 36.4098C120.729 36.6023 120.16 36.6991 119.464 36.6991H114.375L114.375 36.6996ZM118.961 33.1679C118.484 33.1679 118.069 33.1071 117.717 32.9855C117.365 32.8644 117.078 32.6756 116.856 32.4197C116.634 32.1643 116.469 31.8375 116.36 31.4394C116.251 31.0417 116.196 30.5701 116.196 30.0254C116.196 29.5146 116.261 29.0726 116.391 28.6998C116.52 28.327 116.718 28.0214 116.982 27.7823C117.245 27.5433 117.585 27.3657 117.999 27.2483C118.414 27.1309 118.902 27.0722 119.463 27.0722C120.108 27.0722 120.663 27.1097 121.128 27.1854C121.593 27.261 122.043 27.3905 122.479 27.5751V33.1674H118.96L118.961 33.1679ZM118.144 25.8158C118.018 25.8158 117.872 25.7529 117.704 25.6271C117.537 25.5012 117.39 25.3547 117.264 25.1871C117.139 25.0195 117.076 24.873 117.076 24.7472C117.076 24.6049 117.136 24.4516 117.258 24.2882C117.379 24.1248 117.524 23.9826 117.692 23.861C117.859 23.7399 118.01 23.6785 118.144 23.6785C118.286 23.6785 118.44 23.7393 118.603 23.861C118.766 23.9826 118.908 24.1248 119.03 24.2882C119.151 24.4516 119.212 24.6044 119.212 24.7472C119.212 24.873 119.149 25.0195 119.023 25.1871C118.898 25.3547 118.753 25.5012 118.59 25.6271C118.426 25.7529 118.278 25.8158 118.144 25.8158H118.144ZM118.332 30.9058H119.979C120.163 30.9058 120.291 30.8725 120.362 30.8054C120.433 30.7382 120.469 30.6129 120.469 30.4283V29.3348H119.074C118.789 29.3348 118.595 29.3687 118.49 29.4353C118.385 29.5025 118.333 29.6283 118.333 29.8123V30.9058H118.332ZM120.544 25.8158C120.418 25.8158 120.272 25.7529 120.104 25.6271C119.936 25.5012 119.79 25.3547 119.664 25.1871C119.538 25.0195 119.475 24.873 119.475 24.7472C119.475 24.6049 119.536 24.4516 119.658 24.2882C119.779 24.1248 119.924 23.9826 120.091 23.861C120.259 23.7399 120.41 23.6785 120.544 23.6785C120.686 23.6785 120.839 23.7393 121.002 23.861C121.166 23.9826 121.308 24.1248 121.429 24.2882C121.551 24.4516 121.612 24.6044 121.612 24.7472C121.612 24.873 121.549 25.0195 121.424 25.1871C121.298 25.3547 121.153 25.5012 120.99 25.6271C120.827 25.7529 120.678 25.8158 120.544 25.8158ZM122.479 33.1679V30.9058H123.359V33.1679H122.479ZM123.359 33.1679V30.9058C123.434 30.9058 123.495 31.0105 123.541 31.2199C123.587 31.4293 123.61 31.7016 123.61 32.0369C123.61 32.3885 123.587 32.6651 123.541 32.8665C123.495 33.0675 123.434 33.1679 123.359 33.1679Z" fill="#284A68"/>
<path d="M123.359 33.1679C123.283 33.1679 123.223 33.0675 123.176 32.8665C123.13 32.6656 123.107 32.3891 123.107 32.0369C123.107 31.6847 123.13 31.4293 123.176 31.2199C123.222 31.0105 123.283 30.9058 123.359 30.9058V33.1679ZM123.359 33.1679V30.9058H126.01L124.992 31.9237V27.261H127.003V33.1679H123.359ZM124.804 25.8159C124.678 25.8159 124.531 25.7529 124.364 25.6271C124.196 25.5012 124.05 25.3548 123.924 25.1871C123.798 25.0195 123.735 24.8731 123.735 24.7472C123.735 24.605 123.796 24.4516 123.917 24.2882C124.038 24.1248 124.183 23.9826 124.351 23.861C124.519 23.7399 124.669 23.6785 124.804 23.6785C124.946 23.6785 125.099 23.7394 125.262 23.861C125.425 23.9826 125.567 24.1248 125.689 24.2882C125.81 24.4516 125.871 24.6044 125.871 24.7472C125.871 24.8731 125.809 25.0195 125.683 25.1871C125.557 25.3548 125.413 25.5012 125.249 25.6271C125.086 25.7529 124.937 25.8159 124.803 25.8159H124.804ZM125.997 23.2397C125.871 23.2397 125.725 23.1767 125.557 23.0509C125.39 22.925 125.243 22.7786 125.118 22.611C124.992 22.4433 124.929 22.2969 124.929 22.171C124.929 22.0288 124.99 21.8754 125.112 21.712C125.233 21.5486 125.378 21.4064 125.545 21.2848C125.713 21.1637 125.864 21.1024 125.998 21.1024C126.14 21.1024 126.293 21.1632 126.457 21.2848C126.62 21.4064 126.762 21.5486 126.884 21.712C127.005 21.8754 127.066 22.0282 127.066 22.171C127.066 22.2969 127.003 22.4433 126.878 22.611C126.752 22.7786 126.607 22.925 126.444 23.0509C126.281 23.1767 126.132 23.2397 125.998 23.2397H125.997ZM127.204 25.8159C127.078 25.8159 126.932 25.7529 126.764 25.6271C126.596 25.5012 126.45 25.3548 126.324 25.1871C126.198 25.0195 126.135 24.8731 126.135 24.7472C126.135 24.605 126.196 24.4516 126.318 24.2882C126.439 24.1248 126.584 23.9826 126.751 23.861C126.919 23.7399 127.07 23.6785 127.204 23.6785C127.346 23.6785 127.499 23.7394 127.662 23.861C127.826 23.9826 127.968 24.1248 128.089 24.2882C128.21 24.4516 128.272 24.6044 128.272 24.7472C128.272 24.8731 128.209 25.0195 128.084 25.1871C127.958 25.3548 127.813 25.5012 127.65 25.6271C127.487 25.7529 127.338 25.8159 127.204 25.8159Z" fill="#284A68"/>
<path d="M131.275 33.1679C130.798 33.1679 130.383 33.1071 130.031 32.9855C129.68 32.8644 129.393 32.6756 129.171 32.4197C128.949 32.1643 128.783 31.8375 128.674 31.4394C128.565 31.0417 128.511 30.5701 128.511 30.0254C128.511 29.5146 128.575 29.0726 128.705 28.6998C128.835 28.327 129.032 28.0214 129.296 27.7823C129.56 27.5433 129.899 27.3657 130.314 27.2483C130.728 27.1309 131.216 27.0722 131.778 27.0722C132.423 27.0722 132.978 27.1097 133.442 27.1854C133.907 27.261 134.358 27.3905 134.793 27.5751V30.9053L133.662 33.1674H131.275L131.275 33.1679ZM131.992 36.7245L130.635 35.2412C130.961 34.9647 131.256 34.6527 131.521 34.3048C131.784 33.9569 132.011 33.5925 132.199 33.2113C132.388 32.83 132.532 32.4446 132.633 32.0548C132.733 31.6651 132.783 31.2818 132.783 30.9048H134.794C134.794 31.4161 134.727 31.9332 134.593 32.4567C134.459 32.9802 134.27 33.4936 134.027 33.996C133.784 34.4988 133.491 34.9806 133.147 35.4411C132.804 35.9017 132.418 36.3289 131.991 36.7229L131.992 36.7245ZM130.647 30.9058H132.294C132.478 30.9058 132.606 30.8725 132.677 30.8054C132.748 30.7382 132.784 30.6129 132.784 30.4283V29.3348H131.389C131.104 29.3348 130.909 29.3687 130.805 29.4353C130.7 29.5025 130.648 29.6283 130.648 29.8123V30.9058H130.647ZM133.915 33.1679V30.9058H135.799V33.1679H133.915ZM135.799 33.1679V30.9058C135.875 30.9058 135.935 31.0105 135.982 31.2199C136.028 31.4293 136.051 31.7016 136.051 32.0369C136.051 32.3885 136.028 32.6651 135.982 32.8665C135.936 33.0675 135.875 33.1679 135.799 33.1679Z" fill="#284A68"/>
<path d="M135.799 33.1679C135.723 33.1679 135.663 33.0675 135.616 32.8665C135.57 32.6656 135.547 32.3891 135.547 32.0369C135.547 31.6847 135.57 31.4293 135.616 31.2199C135.662 31.0105 135.723 30.9058 135.799 30.9058V33.1679ZM135.799 33.1679V30.9058H141.692V29.3851C141.583 29.3682 141.455 29.356 141.309 29.3475C141.163 29.3391 140.997 29.3349 140.813 29.3349C140.41 29.3349 140.004 29.3623 139.594 29.4168C139.183 29.4713 138.76 29.5532 138.325 29.6616L137.534 27.6634C137.911 27.5296 138.294 27.4186 138.683 27.3303C139.073 27.2425 139.466 27.1775 139.865 27.1357C140.262 27.0939 140.662 27.0728 141.065 27.0728C141.676 27.0728 142.174 27.1505 142.56 27.3054C142.945 27.4603 143.232 27.6994 143.421 28.0219C143.609 28.3445 143.703 28.7617 143.703 29.2725V33.1685H135.799L135.799 33.1679ZM137.834 32.5144C137.575 32.2214 137.399 31.8672 137.307 31.4526C137.214 31.038 137.169 30.55 137.169 29.9884C137.169 29.5781 137.2 29.1947 137.263 28.8383C137.326 28.4825 137.416 28.0906 137.533 27.6634L139.631 28.0906C139.489 28.4846 139.378 28.8219 139.298 29.1022C139.218 29.383 139.179 29.6786 139.179 29.9884C139.179 30.3237 139.189 30.5939 139.21 30.799C139.231 31.0042 139.269 31.1803 139.323 31.3267C139.378 31.4732 139.451 31.6266 139.543 31.7857L137.834 32.5149V32.5144ZM143.702 33.1679V30.9058H144.582V33.1679H143.702ZM144.582 33.1679V30.9058C144.658 30.9058 144.718 31.0105 144.765 31.2199C144.811 31.4293 144.834 31.7016 144.834 32.0369C144.834 32.3885 144.811 32.6651 144.765 32.8665C144.719 33.0675 144.658 33.1679 144.582 33.1679Z" fill="#284A68"/>
<path d="M144.582 33.1679C144.507 33.1679 144.446 33.0675 144.4 32.8665C144.354 32.6656 144.331 32.389 144.331 32.0369C144.331 31.6847 144.354 31.4293 144.4 31.2199C144.446 31.0105 144.507 30.9058 144.582 30.9058V33.1679ZM144.582 33.1679V30.9058H146.216V25.2506H148.226V33.1679H144.582Z" fill="#284A68"/>
<path d="M149.985 33.1679V25.2506H151.996V33.1679H149.985Z" fill="#284A68"/>
</svg>
