<svg width="112" height="113" viewBox="0 0 112 113" fill="none" xmlns="http://www.w3.org/2000/svg">
<path d="M111.449 0.766724V45.3553C111.449 51.5113 108.954 57.0838 104.921 61.1194C101.833 64.208 97.8434 66.3937 93.3814 67.2478V85.7192C93.3814 88.0499 91.491 89.9405 89.1606 89.9405V23.0602C89.1606 10.7497 99.1389 0.766724 111.451 0.766724H111.449Z" fill="#284A68"/>
<path d="M44.5803 0.768311H45.004C57.0715 0.768311 66.8689 10.5671 66.8689 22.6364V112.232H66.4452C54.3777 112.232 44.5803 102.434 44.5803 90.3643V0.768311Z" fill="#284A68"/>
<path d="M22.2901 23.0601V89.9404C22.2901 96.0965 19.7951 101.669 15.7618 105.705C11.7284 109.739 6.15671 112.234 -6.10352e-05 112.234V67.6453C-6.10352e-05 56.7773 7.77657 47.7266 18.0677 45.7545V27.2831C18.0677 24.9523 19.9581 23.0617 22.2885 23.0617L22.2901 23.0601Z" fill="#284A68"/>
</svg>
