<svg width="30" height="30" viewBox="0 0 30 30" fill="none" xmlns="http://www.w3.org/2000/svg">
<path fill-rule="evenodd" clip-rule="evenodd" d="M10.1473 2.66795H20.3756C24.1455 2.66795 26.2446 4.8403 26.2446 8.56257V21.1695C26.2446 24.9528 24.1455 27.0763 20.3756 27.0763H10.1473C6.43724 27.0763 4.2771 24.9528 4.2771 21.1695V8.56257C4.2771 4.8403 6.43724 2.66795 10.1473 2.66795ZM10.4766 8.35506V8.34286H14.1244C14.6504 8.34286 15.0776 8.77 15.0776 9.29356C15.0776 9.83177 14.6504 10.2589 14.1244 10.2589H10.4766C9.9506 10.2589 9.52467 9.83177 9.52467 9.30699C9.52467 8.78221 9.9506 8.35506 10.4766 8.35506ZM10.4766 15.7752H20.0447C20.5694 15.7752 20.9966 15.3481 20.9966 14.8233C20.9966 14.2985 20.5694 13.8702 20.0447 13.8702H10.4766C9.9506 13.8702 9.52467 14.2985 9.52467 14.8233C9.52467 15.3481 9.9506 15.7752 10.4766 15.7752ZM10.4767 21.3525H20.0448C20.5318 21.3037 20.8991 20.8875 20.8991 20.4006C20.8991 19.9002 20.5318 19.4852 20.0448 19.4364H10.4767C10.1106 19.3998 9.7567 19.5707 9.56144 19.888C9.36617 20.1931 9.36617 20.5958 9.56144 20.9131C9.7567 21.2182 10.1106 21.4013 10.4767 21.3525Z" fill="#284A68"/>
</svg>
