<svg width="30" height="30" viewBox="0 0 30 30" fill="none" xmlns="http://www.w3.org/2000/svg">
<path fill-rule="evenodd" clip-rule="evenodd" d="M23.1936 10.8857C23.1936 12.4137 23.5975 13.3144 24.4862 14.3523C25.1597 15.1169 25.375 16.0985 25.375 17.1633C25.375 18.2269 25.0255 19.2367 24.3254 20.0564C23.4088 21.0392 22.1162 21.6666 20.797 21.7756C18.8852 21.9386 16.9723 22.0759 15.0339 22.0759C13.0944 22.0759 11.1826 21.9938 9.27088 21.7756C7.95044 21.6666 6.65781 21.0392 5.74244 20.0564C5.04232 19.2367 4.69165 18.2269 4.69165 17.1633C4.69165 16.0985 4.9081 15.1169 5.58041 14.3523C6.49698 13.3144 6.87425 12.4137 6.87425 10.8857V10.3674C6.87425 8.32097 7.38453 6.98285 8.43533 5.67292C9.99761 3.76255 12.5019 2.61682 14.9795 2.61682H15.0883C17.6192 2.61682 20.2045 3.81769 21.7401 5.81016C22.7365 7.09314 23.1936 8.37488 23.1936 10.3674V10.8857ZM11.473 24.5906C11.473 23.9779 12.0352 23.6973 12.5552 23.5772C13.1634 23.4486 16.8696 23.4486 17.4778 23.5772C17.9978 23.6973 18.5601 23.9779 18.5601 24.5906C18.5298 25.1739 18.1876 25.691 17.7148 26.0194C17.1018 26.4973 16.3823 26.8 15.6302 26.909C15.2142 26.963 14.8055 26.9642 14.4041 26.909C13.6507 26.8 12.9313 26.4973 12.3194 26.0182C11.8454 25.691 11.5032 25.1739 11.473 24.5906Z" fill="#284A68"/>
</svg>
