<svg width="24" height="25" viewBox="0 0 24 25" fill="none" xmlns="http://www.w3.org/2000/svg">
<path fill-rule="evenodd" clip-rule="evenodd" d="M22.256 14.4059C22.6912 14.6371 23.0269 15.0021 23.2632 15.3671C23.7232 16.1214 23.6859 17.0461 23.2383 17.8612L22.3679 19.3212C21.9079 20.0999 21.05 20.5866 20.1672 20.5866C19.732 20.5866 19.2471 20.4649 18.8492 20.2216C18.5259 20.0147 18.1529 19.9417 17.755 19.9417C16.5241 19.9417 15.492 20.9516 15.4547 22.1561C15.4547 23.5552 14.3108 24.6502 12.8809 24.6502H11.1899C9.74762 24.6502 8.60371 23.5552 8.60371 22.1561C8.57884 20.9516 7.54684 19.9417 6.31589 19.9417C5.90557 19.9417 5.53256 20.0147 5.22171 20.2216C4.82383 20.4649 4.32648 20.5866 3.90373 20.5866C3.00849 20.5866 2.15056 20.0999 1.69051 19.3212L0.832578 17.8612C0.372526 17.0704 0.347659 16.1214 0.80771 15.3671C1.00665 15.0021 1.37967 14.6371 1.80242 14.4059C2.15056 14.2356 2.37437 13.9557 2.58575 13.6272C3.20744 12.5809 2.83442 11.2061 1.77755 10.5856C0.5466 9.89206 0.148718 8.34689 0.857445 7.14239L1.69051 5.70673C2.41167 4.50223 3.95346 4.07639 5.19685 4.78206C6.27859 5.36606 7.68361 4.97673 8.31773 3.94256C8.51667 3.60189 8.62858 3.23689 8.60371 2.87189C8.57884 2.39739 8.71562 1.94723 8.95186 1.58223C9.41191 0.827894 10.245 0.341228 11.1526 0.316895H12.9058C13.8259 0.316895 14.659 0.827894 15.119 1.58223C15.3428 1.94723 15.492 2.39739 15.4547 2.87189C15.4299 3.23689 15.5418 3.60189 15.7407 3.94256C16.3748 4.97673 17.7799 5.36606 18.874 4.78206C20.105 4.07639 21.6592 4.50223 22.3679 5.70673L23.201 7.14239C23.9222 8.34689 23.5243 9.89206 22.2809 10.5856C21.224 11.2061 20.851 12.5809 21.4851 13.6272C21.6841 13.9557 21.9079 14.2356 22.256 14.4059ZM8.51667 12.4958C8.51667 14.406 10.0958 15.9268 12.0479 15.9268C14 15.9268 15.5418 14.406 15.5418 12.4958C15.5418 10.5856 14 9.05265 12.0479 9.05265C10.0958 9.05265 8.51667 10.5856 8.51667 12.4958Z" fill="#284A68"/>
</svg>
