<svg width="25" height="26" viewBox="0 0 25 26" fill="none" xmlns="http://www.w3.org/2000/svg">
<path fill-rule="evenodd" clip-rule="evenodd" d="M6.56207 0.863441H17.9595C22.1102 0.863441 24.4534 3.21763 24.4656 7.36826V18.767C24.4656 22.9164 22.1102 25.2718 17.9595 25.2718H6.56207C2.41143 25.2718 0.057251 22.9164 0.057251 18.767V7.36826C0.057251 3.21763 2.41143 0.863441 6.56207 0.863441ZM12.321 20.2193C12.847 20.2193 13.2852 19.8287 13.334 19.3039V6.86789C13.3828 6.48956 13.2009 6.11001 12.8714 5.90376C12.5285 5.69629 12.1136 5.69629 11.7853 5.90376C11.4545 6.11001 11.2727 6.48956 11.3081 6.86789V19.3039C11.3703 19.8287 11.8084 20.2193 12.321 20.2193ZM17.9362 20.2193C18.4487 20.2193 18.8869 19.8287 18.9491 19.304V15.301C18.9845 14.9092 18.8027 14.5443 18.4719 14.3369C18.1436 14.1294 17.7287 14.1294 17.387 14.3369C17.0562 14.5443 16.8744 14.9092 16.9232 15.301V19.304C16.972 19.8287 17.4102 20.2193 17.9362 20.2193ZM7.6469 19.304C7.59808 19.8287 7.15995 20.2193 6.63395 20.2193C6.10917 20.2193 5.66982 19.8287 5.62223 19.304V10.8709C5.58561 10.4913 5.76746 10.1142 6.09819 9.90675C6.42648 9.69928 6.84264 9.69928 7.17216 9.90675C7.50045 10.1142 7.68473 10.4913 7.6469 10.8709V19.304Z" fill="#284A68"/>
</svg>
