<svg width="40" height="46" viewBox="0 0 40 46" fill="none" xmlns="http://www.w3.org/2000/svg">
<path d="M26.7099 0.117798H13.811V4.46675H26.7099V0.117798ZM18.1106 28.386H22.4103V15.3391H18.1106V28.386ZM35.3736 13.9909L38.4264 10.9032C37.502 9.79421 36.4916 8.75046 35.3951 7.83718L32.3424 10.9249C29.0102 8.22859 24.8181 6.61948 20.2604 6.61948C9.57586 6.61948 0.912109 15.3826 0.912109 26.1897C0.912109 36.9969 9.55437 45.76 20.2604 45.76C30.9665 45.76 39.6088 36.9969 39.6088 26.1897C39.6088 21.6016 38.0179 17.3614 35.3736 13.9909ZM20.2604 41.4328C11.9407 41.4328 5.21174 34.6267 5.21174 26.2115C5.21174 17.7963 11.9407 10.9902 20.2604 10.9902C28.5802 10.9902 35.3091 17.7963 35.3091 26.2115C35.3091 34.6267 28.5802 41.4328 20.2604 41.4328Z" fill="#DDB660"/>
</svg>
