<svg width="7" height="5" viewBox="0 0 7 5" fill="none" xmlns="http://www.w3.org/2000/svg">
<path d="M3.17498 4.74354C3.14598 4.71571 3.02198 4.61063 2.91998 4.51274C2.27848 3.93887 1.22848 2.44182 0.907979 1.65827C0.856479 1.53927 0.747479 1.23843 0.740479 1.07768C0.740479 0.923661 0.776479 0.776835 0.849479 0.636726C0.951479 0.46207 1.11198 0.321962 1.30148 0.24519C1.43298 0.195768 1.82648 0.118996 1.83348 0.118996C2.26398 0.0422245 2.96348 0 3.73648 0C4.47298 0 5.14398 0.0422245 5.58098 0.105081C5.58798 0.112279 6.07698 0.189051 6.24448 0.27302C6.55048 0.427043 6.74048 0.727893 6.74048 1.04985V1.07768C6.73298 1.28737 6.54298 1.72833 6.53598 1.72833C6.21498 2.46965 5.21648 3.93216 4.55298 4.51994C4.55298 4.51994 4.38248 4.68548 4.27598 4.75745C4.12298 4.86973 3.93348 4.92539 3.74398 4.92539C3.53248 4.92539 3.33548 4.86253 3.17498 4.74354Z" fill="#030229"/>
</svg>
