<svg width="21" height="23" viewBox="0 0 21 23" fill="none" xmlns="http://www.w3.org/2000/svg">
<g filter="url(#filter0_dd_21_3739)">
<path d="M7.75 1.25H16.5V2.5H7.75V1.25ZM7.75 5H14V6.25H7.75V5ZM7.75 8.75H16.5V10H7.75V8.75ZM7.75 12.5H14V13.75H7.75V12.5ZM4 0H5.25V15H4V0Z" fill="white"/>
<path d="M7.75 1.25H16.5V2.5H7.75V1.25ZM7.75 5H14V6.25H7.75V5ZM7.75 8.75H16.5V10H7.75V8.75ZM7.75 12.5H14V13.75H7.75V12.5ZM4 0H5.25V15H4V0Z" fill="black" fill-opacity="0.2"/>
<path d="M7.75 1.25H16.5V2.5H7.75V1.25ZM7.75 5H14V6.25H7.75V5ZM7.75 8.75H16.5V10H7.75V8.75ZM7.75 12.5H14V13.75H7.75V12.5ZM4 0H5.25V15H4V0Z" fill="black" fill-opacity="0.2"/>
</g>
<defs>
<filter id="filter0_dd_21_3739" x="0" y="0" width="20.5" height="23" filterUnits="userSpaceOnUse" color-interpolation-filters="sRGB">
<feFlood flood-opacity="0" result="BackgroundImageFix"/>
<feColorMatrix in="SourceAlpha" type="matrix" values="0 0 0 0 0 0 0 0 0 0 0 0 0 0 0 0 0 0 127 0" result="hardAlpha"/>
<feOffset dy="4"/>
<feGaussianBlur stdDeviation="2"/>
<feComposite in2="hardAlpha" operator="out"/>
<feColorMatrix type="matrix" values="0 0 0 0 0 0 0 0 0 0 0 0 0 0 0 0 0 0 0.25 0"/>
<feBlend mode="normal" in2="BackgroundImageFix" result="effect1_dropShadow_21_3739"/>
<feColorMatrix in="SourceAlpha" type="matrix" values="0 0 0 0 0 0 0 0 0 0 0 0 0 0 0 0 0 0 127 0" result="hardAlpha"/>
<feOffset dy="4"/>
<feGaussianBlur stdDeviation="2"/>
<feComposite in2="hardAlpha" operator="out"/>
<feColorMatrix type="matrix" values="0 0 0 0 0 0 0 0 0 0 0 0 0 0 0 0 0 0 0.25 0"/>
<feBlend mode="normal" in2="effect1_dropShadow_21_3739" result="effect2_dropShadow_21_3739"/>
<feBlend mode="normal" in="SourceGraphic" in2="effect2_dropShadow_21_3739" result="shape"/>
</filter>
</defs>
</svg>
