<svg width="471" height="135" viewBox="0 0 471 135" fill="none" xmlns="http://www.w3.org/2000/svg">
<rect x="1.09876" y="1.09876" width="468.802" height="131.851" rx="25.2714" stroke="white" stroke-opacity="0.2" stroke-width="2.19751"/>
<path d="M161.829 88.813C160.559 88.813 159.465 88.6665 158.547 88.3735C157.629 88.0805 156.877 87.6215 156.291 86.9964C155.705 86.3713 155.265 85.5705 154.972 84.5938C154.699 83.6171 154.562 82.4451 154.562 81.0778C154.562 79.2416 154.816 77.7571 155.324 76.6241C155.852 75.4912 156.652 74.661 157.727 74.1336C158.821 73.6062 160.227 73.3425 161.946 73.3425C163.665 73.3425 165.003 73.489 165.96 73.782C166.917 74.075 167.591 74.5731 167.982 75.2763C168.392 75.9795 168.597 76.9464 168.597 78.177C168.597 79.0951 168.451 79.8667 168.158 80.4918C167.884 81.0973 167.425 81.5856 166.78 81.9568C166.136 82.3279 165.267 82.5916 164.173 82.7479C163.079 82.9041 161.721 82.9823 160.1 82.9823H159.221V80.2867H161.829C162.63 80.2867 163.177 80.1988 163.47 80.023C163.782 79.8276 163.938 79.4663 163.938 78.9389V77.1515H162.21C161.409 77.1515 160.852 77.2394 160.54 77.4152C160.247 77.591 160.1 77.9231 160.1 78.4114V84.8282C160.588 84.9454 161.36 85.004 162.415 85.004C163.235 85.004 164.065 84.9454 164.905 84.8282C165.745 84.6914 166.634 84.4961 167.572 84.2422L168.216 87.8461C167.259 88.1586 166.243 88.393 165.169 88.5493C164.095 88.7251 162.981 88.813 161.829 88.813ZM170.779 79.5542C170.779 79.0072 170.955 78.6751 171.307 78.5579C171.658 78.4407 172.117 78.3821 172.684 78.3821H179.452V81.1364C179.452 81.6833 179.276 82.0154 178.925 82.1326C178.573 82.2498 178.114 82.3084 177.548 82.3084H170.779V79.5542ZM181.99 88.4028V73.7527H184.539L185.828 75.2177C186.668 74.5927 187.567 74.1239 188.524 73.8113C189.481 73.4988 190.506 73.3425 191.6 73.3425C192.987 73.3425 194.052 73.6258 194.794 74.1922C195.556 74.7392 195.937 75.5107 195.937 76.5069V88.4028H190.78V77.591H188.612C188.065 77.591 187.684 77.6692 187.469 77.8254C187.254 77.9817 187.147 78.2454 187.147 78.6165V88.4028H181.99ZM206.041 88.813C204.712 88.813 203.579 88.6665 202.642 88.3735C201.704 88.0805 200.933 87.6312 200.327 87.0257C199.741 86.4006 199.302 85.5998 199.009 84.6231C198.735 83.6269 198.598 82.4451 198.598 81.0778C198.598 79.6909 198.735 78.5091 199.009 77.5324C199.302 76.5362 199.741 75.7354 200.327 75.1298C200.933 74.5048 201.704 74.0555 202.642 73.782C203.579 73.489 204.712 73.3425 206.041 73.3425C207.369 73.3425 208.502 73.489 209.439 73.782C210.377 74.0555 211.139 74.5048 211.725 75.1298C212.33 75.7354 212.77 76.5362 213.043 77.5324C213.317 78.5091 213.454 79.6909 213.454 81.0778C213.454 82.4451 213.317 83.6269 213.043 84.6231C212.77 85.5998 212.33 86.4006 211.725 87.0257C211.139 87.6312 210.377 88.0805 209.439 88.3735C208.502 88.6665 207.369 88.813 206.041 88.813ZM204.136 84.8868H206.744C207.213 84.8868 207.525 84.8379 207.681 84.7403C207.857 84.6231 207.945 84.4082 207.945 84.0957V77.2687H205.337C204.869 77.2687 204.546 77.3273 204.37 77.4445C204.214 77.5422 204.136 77.7473 204.136 78.0598V84.8868ZM220.341 88.813C219.188 88.813 218.329 88.5786 217.762 88.1098C217.215 87.6215 216.942 86.8694 216.942 85.8537V71.2329L222.099 69.9144V84.711C222.411 84.75 222.714 84.7891 223.007 84.8282C223.3 84.8477 223.603 84.8672 223.915 84.8868L223.681 88.3735C223.017 88.5102 222.401 88.6177 221.835 88.6958C221.288 88.7739 220.79 88.813 220.341 88.813ZM215.33 77.1222V73.7527H224.267V77.1222H215.33ZM231.073 88.813C229.335 88.813 228.065 88.4321 227.264 87.6703C226.483 86.889 226.092 85.6584 226.092 83.9785C226.092 83.0604 226.219 82.2986 226.473 81.6931C226.747 81.068 227.177 80.5699 227.763 80.1988C228.368 79.8276 229.179 79.5639 230.194 79.4077C231.23 79.2514 232.509 79.1733 234.033 79.1733H235.703V81.8689H232.949C232.148 81.8689 231.591 81.9665 231.279 82.1619C230.986 82.3377 230.839 82.6893 230.839 83.2167V85.2677H232.714C233.515 85.2677 234.062 85.1798 234.355 85.004C234.668 84.8282 234.824 84.4961 234.824 84.0078V77.3273C234.414 77.2101 233.798 77.1515 232.978 77.1515C232.138 77.1515 231.249 77.2101 230.312 77.3273C229.394 77.4445 228.417 77.6399 227.382 77.9133L226.766 74.3094C227.45 74.0946 228.163 73.9188 228.905 73.782C229.648 73.6258 230.409 73.5183 231.191 73.4597C231.972 73.3816 232.763 73.3425 233.564 73.3425C235.068 73.3425 236.289 73.5183 237.227 73.8699C238.164 74.202 238.858 74.7294 239.307 75.4521C239.756 76.1553 239.981 77.0832 239.981 78.2356V88.4028H237.432L236.113 86.9378C234.648 88.1879 232.968 88.813 231.073 88.813ZM243.308 74.368L248.465 73.6941V88.4028H243.308V74.368ZM245.887 72.1998C244.812 72.1998 244.07 72.0142 243.66 71.6431C243.269 71.2524 243.074 70.5199 243.074 69.4456C243.074 68.3517 243.269 67.6095 243.66 67.2188C244.07 66.8281 244.812 66.6328 245.887 66.6328C246.942 66.6328 247.664 66.8281 248.055 67.2188C248.446 67.6095 248.641 68.3517 248.641 69.4456C248.641 70.5199 248.455 71.2524 248.084 71.6431C247.713 72.0142 246.981 72.1998 245.887 72.1998ZM254.499 73.7527L255.964 75.7744C256.608 75.1298 257.282 74.6122 257.985 74.2215C258.689 73.8113 259.441 73.5086 260.242 73.3132L260.564 78.3235C260.232 78.3626 259.831 78.4603 259.363 78.6165C258.913 78.7728 258.484 78.9486 258.073 79.144C257.663 79.3198 257.341 79.4956 257.106 79.6714V88.4028H251.95V73.7527H254.499ZM269.129 88.813C267.859 88.813 266.766 88.6665 265.847 88.3735C264.929 88.0805 264.177 87.6215 263.591 86.9964C263.005 86.3713 262.566 85.5705 262.273 84.5938C261.999 83.6171 261.863 82.4451 261.863 81.0778C261.863 79.2416 262.117 77.7571 262.624 76.6241C263.152 75.4912 263.953 74.661 265.027 74.1336C266.121 73.6062 267.527 73.3425 269.246 73.3425C270.965 73.3425 272.303 73.489 273.26 73.782C274.218 74.075 274.891 74.5731 275.282 75.2763C275.692 75.9795 275.897 76.9464 275.897 78.177C275.897 79.0951 275.751 79.8667 275.458 80.4918C275.184 81.0973 274.725 81.5856 274.081 81.9568C273.436 82.3279 272.567 82.5916 271.473 82.7479C270.379 82.9041 269.022 82.9823 267.4 82.9823H266.521V80.2867H269.129C269.93 80.2867 270.477 80.1988 270.77 80.023C271.082 79.8276 271.239 79.4663 271.239 78.9389V77.1515H269.51C268.709 77.1515 268.152 77.2394 267.84 77.4152C267.547 77.591 267.4 77.9231 267.4 78.4114V84.8282C267.889 84.9454 268.66 85.004 269.715 85.004C270.536 85.004 271.366 84.9454 272.206 84.8282C273.046 84.6914 273.934 84.4961 274.872 84.2422L275.517 87.8461C274.559 88.1586 273.544 88.393 272.469 88.5493C271.395 88.7251 270.282 88.813 269.129 88.813ZM278.314 85.7658C278.314 84.75 278.5 84.0175 278.871 83.5683C279.242 83.119 280.013 82.8944 281.185 82.8944C282.357 82.8944 283.129 83.119 283.5 83.5683C283.871 84.0175 284.057 84.75 284.057 85.7658C284.057 86.7815 283.871 87.5043 283.5 87.934C283.129 88.3637 282.357 88.5786 281.185 88.5786C280.013 88.5786 279.242 88.3637 278.871 87.934C278.5 87.5043 278.314 86.7815 278.314 85.7658ZM292.221 73.3425C293.354 73.3425 294.311 73.489 295.092 73.782C295.893 74.075 296.537 74.5243 297.026 75.1298C297.514 75.7354 297.866 76.5362 298.081 77.5324C298.315 78.5091 298.432 79.6909 298.432 81.0778C298.432 82.4842 298.315 83.6855 298.081 84.6817C297.866 85.6584 297.514 86.4592 297.026 87.0843C296.537 87.6898 295.893 88.1293 295.092 88.4028C294.311 88.6958 293.354 88.8423 292.221 88.8423C291.127 88.8423 290.199 88.6958 289.437 88.4028C288.675 88.1293 288.05 87.6801 287.562 87.055C287.074 86.4299 286.712 85.6291 286.478 84.6524C286.263 83.6757 286.155 82.4842 286.155 81.0778C286.155 79.6909 286.263 78.5091 286.478 77.5324C286.712 76.5362 287.074 75.7354 287.562 75.1298C288.05 74.5048 288.675 74.0555 289.437 73.782C290.199 73.489 291.127 73.3425 292.221 73.3425ZM295.414 77.2687H292.865C292.416 77.2687 292.103 77.3273 291.928 77.4445C291.771 77.5422 291.693 77.7473 291.693 78.0598V84.9161H294.213C294.682 84.9161 294.994 84.8672 295.151 84.7696C295.326 84.6524 295.414 84.4375 295.414 84.125V77.2687ZM300.571 68.8303V88.4028H298.022L295.414 84.6817V69.2405L300.571 68.8303ZM309.768 77.6496L309.65 77.4738H304.2L303.849 73.7527H316.243V76.5948L309.855 84.5059L309.943 84.6817H316.36V88.4028H303.38V85.5607L309.768 77.6496Z" fill="white"/>
<path d="M117.933 50.3322C116.772 50.3322 115.817 50.297 115.067 50.2267C114.317 50.1564 113.731 50.0099 113.309 49.7872C112.887 49.5763 112.588 49.2481 112.412 48.8027C112.248 48.3574 112.166 47.7597 112.166 47.0096C112.166 46.5642 112.184 46.0895 112.219 45.5856C112.266 45.0933 112.33 44.6245 112.412 44.1792C112.495 43.7221 112.588 43.3236 112.694 42.9837L114.065 43.2298C113.924 43.8393 113.807 44.4312 113.713 45.0054C113.62 45.5797 113.573 46.1188 113.573 46.6228C113.573 47.0682 113.585 47.4491 113.608 47.7655C113.643 48.0937 113.702 48.4218 113.784 48.75H118.759C119.825 48.75 120.658 48.7266 121.255 48.6797C121.865 48.6328 122.293 48.539 122.539 48.3984C122.785 48.2695 122.908 48.0761 122.908 47.8183V45.4977H124.314V46.9217C124.314 47.5897 124.226 48.1406 124.051 48.5742C123.875 49.0196 123.558 49.3712 123.101 49.629C122.656 49.8868 122.011 50.0685 121.167 50.174C120.324 50.2795 119.245 50.3322 117.933 50.3322ZM122.029 45.4977C121.443 45.4977 120.822 45.4508 120.165 45.357C119.521 45.2633 118.976 45.1344 118.53 44.9703L118.759 43.4935C119.298 43.6342 119.82 43.7397 120.324 43.81C120.828 43.8803 121.296 43.9155 121.73 43.9155H126.072V45.4977H122.029ZM126.072 45.4977V43.9155C126.213 43.9155 126.307 43.9858 126.354 44.1264C126.4 44.2671 126.424 44.4605 126.424 44.7066C126.424 44.9527 126.4 45.1461 126.354 45.2867C126.307 45.4274 126.213 45.4977 126.072 45.4977ZM117.247 53.2329C117.13 53.2329 116.995 53.1743 116.843 53.0571C116.69 52.9516 116.556 52.8227 116.438 52.6704C116.333 52.5297 116.28 52.3949 116.28 52.266C116.28 52.1488 116.333 52.014 116.438 51.8617C116.556 51.7093 116.69 51.5745 116.843 51.4573C116.995 51.3519 117.13 51.2991 117.247 51.2991C117.376 51.2991 117.511 51.3519 117.651 51.4573C117.804 51.5745 117.933 51.7093 118.038 51.8617C118.155 52.014 118.214 52.1488 118.214 52.266C118.214 52.3832 118.155 52.518 118.038 52.6704C117.933 52.8227 117.804 52.9516 117.651 53.0571C117.499 53.1743 117.364 53.2329 117.247 53.2329ZM119.779 53.2329C119.661 53.2329 119.527 53.1743 119.374 53.0571C119.222 52.9516 119.087 52.8227 118.97 52.6704C118.864 52.5297 118.812 52.3949 118.812 52.266C118.812 52.1488 118.864 52.014 118.97 51.8617C119.087 51.7093 119.222 51.5745 119.374 51.4573C119.527 51.3519 119.661 51.2991 119.779 51.2991C119.907 51.2991 120.042 51.3519 120.183 51.4573C120.335 51.5745 120.464 51.7093 120.57 51.8617C120.687 52.014 120.745 52.1488 120.745 52.266C120.745 52.3832 120.687 52.518 120.57 52.6704C120.464 52.8227 120.335 52.9516 120.183 53.0571C120.031 53.1743 119.896 53.2329 119.779 53.2329ZM126.078 45.4977V43.9155H129.33L128.539 44.7066V37.235H129.946V45.4977H126.078ZM126.078 45.4977C125.937 45.4977 125.844 45.4274 125.797 45.2867C125.75 45.1461 125.726 44.9527 125.726 44.7066C125.726 44.4605 125.75 44.2671 125.797 44.1264C125.844 43.9858 125.937 43.9155 126.078 43.9155V45.4977ZM129.242 35.1254C129.125 35.1254 128.99 35.0727 128.838 34.9672C128.686 34.85 128.551 34.7211 128.434 34.5804C128.328 34.4281 128.276 34.2874 128.276 34.1585C128.276 34.0413 128.328 33.9065 128.434 33.7542C128.551 33.6018 128.686 33.4729 128.838 33.3674C128.99 33.2502 129.125 33.1916 129.242 33.1916C129.371 33.1916 129.506 33.2502 129.647 33.3674C129.799 33.4729 129.928 33.6018 130.034 33.7542C130.151 33.9065 130.209 34.0413 130.209 34.1585C130.209 34.2757 130.151 34.4105 130.034 34.5629C129.928 34.7152 129.799 34.85 129.647 34.9672C129.494 35.0727 129.36 35.1254 129.242 35.1254ZM135.753 45.4977C135.249 45.4977 134.833 45.4332 134.504 45.3043C134.176 45.1754 133.912 44.9586 133.713 44.6538C133.526 44.3374 133.391 43.9038 133.309 43.3529C133.239 42.8021 133.203 42.1106 133.203 41.2785C133.203 40.4346 133.256 39.7373 133.362 39.1864C133.479 38.6239 133.672 38.1902 133.942 37.8855C134.211 37.5808 134.586 37.3698 135.067 37.2526C135.547 37.1237 136.157 37.0592 136.895 37.0592C137.645 37.0592 138.296 37.1003 138.847 37.1823C139.397 37.2643 139.972 37.405 140.569 37.6042V43.9155L139.919 45.4977H135.753ZM136.843 50.1916L135.964 49.1016C136.397 48.7617 136.807 48.375 137.194 47.9413C137.581 47.5077 137.921 47.0564 138.214 46.5876C138.507 46.1188 138.735 45.6559 138.899 45.1988C139.075 44.7417 139.163 44.314 139.163 43.9155H140.569C140.569 44.4077 140.47 44.941 140.271 45.5153C140.083 46.0895 139.819 46.6638 139.48 47.2381C139.14 47.8124 138.741 48.3515 138.284 48.8555C137.839 49.3712 137.358 49.8165 136.843 50.1916ZM134.698 43.9155H138.354C138.659 43.9155 138.87 43.851 138.987 43.7221C139.104 43.5932 139.163 43.3646 139.163 43.0365V38.6414H135.506C135.19 38.6414 134.973 38.7059 134.856 38.8348C134.75 38.9637 134.698 39.2216 134.698 39.6083V43.9155ZM143.409 50.0509L142.811 48.8203C143.268 48.6094 143.626 48.3632 143.884 48.082C144.153 47.8007 144.341 47.4491 144.446 47.0271C144.563 46.6169 144.622 46.1071 144.622 45.4977V37.235H146.028V45.4977C146.028 46.2712 145.935 46.9392 145.747 47.5018C145.571 48.0761 145.29 48.5683 144.903 48.9785C144.528 49.4005 144.03 49.7579 143.409 50.0509ZM146.028 38.8172V37.235H150.423V38.8172H146.028ZM150.423 45.4977V37.235H151.83V43.9155H153.588V45.4977H150.423ZM153.588 45.4977V43.9155C153.728 43.9155 153.822 43.9858 153.869 44.1264C153.916 44.2671 153.939 44.4605 153.939 44.7066C153.939 44.9527 153.916 45.1461 153.869 45.2867C153.822 45.4274 153.728 45.4977 153.588 45.4977ZM149.861 35.1254C149.744 35.1254 149.609 35.0727 149.456 34.9672C149.304 34.85 149.169 34.7211 149.052 34.5804C148.947 34.4281 148.894 34.2874 148.894 34.1585C148.894 34.0413 148.947 33.9065 149.052 33.7542C149.169 33.6018 149.304 33.4729 149.456 33.3674C149.609 33.2502 149.744 33.1916 149.861 33.1916C149.99 33.1916 150.125 33.2502 150.265 33.3674C150.418 33.4729 150.546 33.6018 150.652 33.7542C150.769 33.9065 150.828 34.0413 150.828 34.1585C150.828 34.2757 150.769 34.4105 150.652 34.5629C150.546 34.7152 150.418 34.85 150.265 34.9672C150.113 35.0727 149.978 35.1254 149.861 35.1254ZM152.392 35.1254C152.275 35.1254 152.14 35.0727 151.988 34.9672C151.836 34.85 151.701 34.7211 151.584 34.5804C151.478 34.4281 151.425 34.2874 151.425 34.1585C151.425 34.0413 151.478 33.9065 151.584 33.7542C151.701 33.6018 151.836 33.4729 151.988 33.3674C152.14 33.2502 152.275 33.1916 152.392 33.1916C152.521 33.1916 152.656 33.2502 152.797 33.3674C152.949 33.4729 153.078 33.6018 153.183 33.7542C153.301 33.9065 153.359 34.0413 153.359 34.1585C153.359 34.2757 153.301 34.4105 153.183 34.5629C153.078 34.7152 152.949 34.85 152.797 34.9672C152.644 35.0727 152.51 35.1254 152.392 35.1254ZM164.164 45.4977V43.9155H165.922V45.4977H164.164ZM153.581 45.4977V43.9155H162.758V39.9951H156.763C156.224 39.9951 155.814 39.8721 155.533 39.6259C155.251 39.3681 155.111 38.993 155.111 38.5008C155.111 38.114 155.181 37.6804 155.322 37.1999C155.462 36.7194 155.65 36.2271 155.884 35.7231C156.13 35.2075 156.406 34.7211 156.71 34.264C157.027 33.7952 157.361 33.385 157.713 33.0334L158.908 33.6663C158.58 34.0179 158.275 34.3929 157.994 34.7914C157.713 35.1782 157.461 35.5766 157.238 35.9868C157.027 36.3971 156.845 36.8073 156.693 37.2175C156.541 37.6277 156.435 38.0261 156.376 38.4129H162.231C162.735 38.4129 163.121 38.4715 163.391 38.5887C163.672 38.7059 163.871 38.9051 163.989 39.1864C164.106 39.456 164.164 39.8428 164.164 40.3467V45.4977H153.581ZM153.581 45.4977C153.441 45.4977 153.347 45.4274 153.3 45.2867C153.253 45.1461 153.23 44.9527 153.23 44.7066C153.23 44.4605 153.253 44.2671 153.3 44.1264C153.347 43.9858 153.441 43.9155 153.581 43.9155V45.4977ZM165.922 45.4977V43.9155C166.063 43.9155 166.157 43.9858 166.204 44.1264C166.251 44.2671 166.274 44.4605 166.274 44.7066C166.274 44.9527 166.251 45.1461 166.204 45.2867C166.157 45.4274 166.063 45.4977 165.922 45.4977ZM165.925 45.4977V43.9155H168.386V34.4222H169.793V45.4977H165.925ZM165.925 45.4977C165.784 45.4977 165.691 45.4274 165.644 45.2867C165.597 45.1461 165.573 44.9527 165.573 44.7066C165.573 44.4605 165.597 44.2671 165.644 44.1264C165.691 43.9858 165.784 43.9155 165.925 43.9155V45.4977ZM176.777 45.7614C175.758 45.7614 174.955 45.6793 174.369 45.5153C173.795 45.3512 173.39 45.0816 173.156 44.7066C172.922 44.3198 172.804 43.81 172.804 43.1771C172.804 42.638 172.869 42.1985 172.998 41.8586C173.127 41.507 173.373 41.2081 173.736 40.962C174.099 40.7042 174.621 40.4463 175.301 40.1885L179.502 38.6239V34.4222H180.909V37.9558C180.909 38.3074 180.879 38.6239 180.821 38.9051C180.762 39.1747 180.657 39.4032 180.504 39.5908C180.352 39.7783 180.141 39.9189 179.872 40.0127V40.1358C180.422 40.6163 180.797 41.0558 180.997 41.4543C181.208 41.841 181.313 42.2864 181.313 42.7903C181.313 43.8334 180.956 44.5894 180.241 45.0582C179.526 45.527 178.371 45.7614 176.777 45.7614ZM174.299 44.1792H177.85C178.541 44.1792 179.039 44.0444 179.344 43.7748C179.661 43.5053 179.819 43.1947 179.819 42.8431C179.819 42.597 179.749 42.3508 179.608 42.1047C179.479 41.8469 179.291 41.6183 179.045 41.4191L178.166 40.7159L174.299 42.1575V44.1792ZM177.252 39.9951L173.244 36.7604L174.176 35.6177L178.887 39.415L177.252 39.9951ZM184.473 45.4977V34.4222H185.88V45.4977H184.473ZM205.785 45.4977V43.9155H207.543V45.4977H205.785ZM195.554 50.0685C194.956 50.0685 194.475 49.9279 194.112 49.6466C193.749 49.377 193.485 48.9317 193.321 48.3105C193.169 47.7011 193.092 46.8748 193.092 45.8317C193.092 45.4098 193.11 44.9703 193.145 44.5132C193.192 44.0561 193.251 43.6225 193.321 43.2123C193.391 42.7903 193.479 42.4153 193.585 42.0871L194.921 42.3157C194.78 42.9017 194.675 43.4701 194.604 44.021C194.534 44.5718 194.499 45.0816 194.499 45.5504C194.499 46.1599 194.516 46.699 194.552 47.1678C194.599 47.6366 194.675 48.0761 194.78 48.4863H204.379V45.4977H205.785V47.2557C205.785 47.9472 205.697 48.498 205.522 48.9082C205.346 49.3184 205.059 49.6114 204.66 49.7872C204.262 49.9747 203.728 50.0685 203.06 50.0685H195.554ZM200.968 45.4977C200.464 45.4977 200.048 45.4332 199.72 45.3043C199.392 45.1754 199.128 44.9586 198.929 44.6538C198.742 44.3374 198.607 43.9038 198.525 43.3529C198.454 42.8021 198.419 42.1106 198.419 41.2785C198.419 40.4346 198.472 39.7373 198.577 39.1864C198.683 38.6239 198.87 38.1902 199.14 37.8855C199.421 37.5808 199.802 37.3698 200.283 37.2526C200.763 37.1237 201.373 37.0592 202.111 37.0592C202.861 37.0592 203.512 37.1003 204.062 37.1823C204.613 37.2643 205.188 37.405 205.785 37.6042V45.4977H200.968ZM199.914 43.9155H203.57C203.875 43.9155 204.086 43.851 204.203 43.7221C204.32 43.5932 204.379 43.3646 204.379 43.0365V38.6414H200.722C200.406 38.6414 200.189 38.7059 200.072 38.8348C199.966 38.9637 199.914 39.2216 199.914 39.6083V43.9155ZM207.543 45.4977V43.9155C207.684 43.9155 207.778 43.9858 207.825 44.1264C207.871 44.2671 207.895 44.4605 207.895 44.7066C207.895 44.9527 207.871 45.1461 207.825 45.2867C207.778 45.4274 207.684 45.4977 207.543 45.4977ZM200.88 35.1254C200.763 35.1254 200.628 35.0727 200.476 34.9672C200.324 34.85 200.189 34.7211 200.072 34.5804C199.966 34.4281 199.914 34.2874 199.914 34.1585C199.914 34.0413 199.966 33.9065 200.072 33.7542C200.189 33.6018 200.324 33.4729 200.476 33.3674C200.628 33.2502 200.763 33.1916 200.88 33.1916C201.009 33.1916 201.144 33.2502 201.285 33.3674C201.437 33.4729 201.566 33.6018 201.672 33.7542C201.789 33.9065 201.847 34.0413 201.847 34.1585C201.847 34.2757 201.789 34.4105 201.672 34.5629C201.566 34.7152 201.437 34.85 201.285 34.9672C201.132 35.0727 200.998 35.1254 200.88 35.1254ZM203.412 35.1254C203.295 35.1254 203.16 35.0727 203.008 34.9672C202.855 34.85 202.721 34.7211 202.603 34.5804C202.498 34.4281 202.445 34.2874 202.445 34.1585C202.445 34.0413 202.498 33.9065 202.603 33.7542C202.721 33.6018 202.855 33.4729 203.008 33.3674C203.16 33.2502 203.295 33.1916 203.412 33.1916C203.541 33.1916 203.676 33.2502 203.816 33.3674C203.969 33.4729 204.098 33.6018 204.203 33.7542C204.32 33.9065 204.379 34.0413 204.379 34.1585C204.379 34.2757 204.32 34.4105 204.203 34.5629C204.098 34.7152 203.969 34.85 203.816 34.9672C203.664 35.0727 203.529 35.1254 203.412 35.1254ZM207.54 45.4977V43.9155H210.793L210.002 44.7066V37.235H211.408V45.4977H207.54ZM207.54 45.4977C207.4 45.4977 207.306 45.4274 207.259 45.2867C207.212 45.1461 207.189 44.9527 207.189 44.7066C207.189 44.4605 207.212 44.2671 207.259 44.1264C207.306 43.9858 207.4 43.9155 207.54 43.9155V45.4977ZM209.439 35.1254C209.322 35.1254 209.187 35.0727 209.035 34.9672C208.882 34.85 208.748 34.7211 208.63 34.5804C208.525 34.4281 208.472 34.2874 208.472 34.1585C208.472 34.0413 208.525 33.9065 208.63 33.7542C208.748 33.6018 208.882 33.4729 209.035 33.3674C209.187 33.2502 209.322 33.1916 209.439 33.1916C209.568 33.1916 209.703 33.2502 209.843 33.3674C209.996 33.4729 210.125 33.6018 210.23 33.7542C210.347 33.9065 210.406 34.0413 210.406 34.1585C210.406 34.2757 210.347 34.4105 210.23 34.5629C210.125 34.7152 209.996 34.85 209.843 34.9672C209.691 35.0727 209.556 35.1254 209.439 35.1254ZM211.971 35.1254C211.853 35.1254 211.719 35.0727 211.566 34.9672C211.414 34.85 211.279 34.7211 211.162 34.5804C211.056 34.4281 211.004 34.2874 211.004 34.1585C211.004 34.0413 211.056 33.9065 211.162 33.7542C211.279 33.6018 211.414 33.4729 211.566 33.3674C211.719 33.2502 211.853 33.1916 211.971 33.1916C212.1 33.1916 212.234 33.2502 212.375 33.3674C212.527 33.4729 212.656 33.6018 212.762 33.7542C212.879 33.9065 212.938 34.0413 212.938 34.1585C212.938 34.2757 212.879 34.4105 212.762 34.5629C212.656 34.7152 212.527 34.85 212.375 34.9672C212.223 35.0727 212.088 35.1254 211.971 35.1254ZM210.705 32.4884C210.588 32.4884 210.453 32.4357 210.301 32.3302C210.148 32.213 210.013 32.0841 209.896 31.9434C209.791 31.7911 209.738 31.6504 209.738 31.5215C209.738 31.4043 209.791 31.2695 209.896 31.1172C210.013 30.9648 210.148 30.8359 210.301 30.7304C210.453 30.6132 210.588 30.5546 210.705 30.5546C210.834 30.5546 210.969 30.6132 211.109 30.7304C211.262 30.8359 211.39 30.9648 211.496 31.1172C211.613 31.2695 211.672 31.4043 211.672 31.5215C211.672 31.6387 211.613 31.7735 211.496 31.9258C211.39 32.0782 211.262 32.213 211.109 32.3302C210.957 32.4357 210.822 32.4884 210.705 32.4884ZM221.505 45.4977V43.9155H223.966V45.4977H221.505ZM217.215 45.4977C216.711 45.4977 216.295 45.4332 215.967 45.3043C215.639 45.1754 215.375 44.9586 215.176 44.6538C214.988 44.3374 214.853 43.9038 214.771 43.3529C214.701 42.8021 214.666 42.1106 214.666 41.2785C214.666 40.4346 214.719 39.7373 214.824 39.1864C214.941 38.6239 215.135 38.1902 215.404 37.8855C215.674 37.5808 216.049 37.3698 216.529 37.2526C217.01 37.1237 217.619 37.0592 218.358 37.0592C219.108 37.0592 219.758 37.1003 220.309 37.1823C220.86 37.2643 221.434 37.405 222.032 37.6042V43.9155L221.381 45.4977H217.215ZM218.305 50.1916L217.426 49.1016C217.86 48.7617 218.27 48.375 218.657 47.9413C219.043 47.5077 219.383 47.0564 219.676 46.5876C219.969 46.1188 220.198 45.6559 220.362 45.1988C220.538 44.7417 220.626 44.314 220.626 43.9155H222.032C222.032 44.4077 221.932 44.941 221.733 45.5153C221.546 46.0895 221.282 46.6638 220.942 47.2381C220.602 47.8124 220.204 48.3515 219.747 48.8555C219.301 49.3712 218.821 49.8165 218.305 50.1916ZM216.16 43.9155H219.817C220.122 43.9155 220.333 43.851 220.45 43.7221C220.567 43.5932 220.626 43.3646 220.626 43.0365V38.6414H216.969C216.652 38.6414 216.436 38.7059 216.318 38.8348C216.213 38.9637 216.16 39.2216 216.16 39.6083V43.9155ZM223.966 45.4977V43.9155C224.106 43.9155 224.2 43.9858 224.247 44.1264C224.294 44.2671 224.317 44.4605 224.317 44.7066C224.317 44.9527 224.294 45.1461 224.247 45.2867C224.2 45.4274 224.106 45.4977 223.966 45.4977ZM233.727 45.4977V43.9155H235.485V45.4977H233.727ZM223.97 45.4977V43.9155H232.321V38.8348C232.04 38.7645 231.747 38.7176 231.442 38.6942C231.137 38.659 230.78 38.6414 230.369 38.6414C229.901 38.6414 229.385 38.6766 228.822 38.7469C228.26 38.8172 227.727 38.9227 227.223 39.0634L226.678 37.7624C227.006 37.6101 227.381 37.4812 227.803 37.3757C228.236 37.2702 228.688 37.194 229.156 37.1471C229.625 37.0885 230.071 37.0592 230.492 37.0592C231.289 37.0592 231.922 37.1354 232.391 37.2878C232.872 37.4284 233.212 37.6687 233.411 38.0086C233.622 38.3367 233.727 38.7821 233.727 39.3446V45.4977H223.97ZM226.713 44.9175C226.385 44.5425 226.168 44.0503 226.062 43.4408C225.957 42.8196 225.904 42.1692 225.904 41.4894C225.904 40.8214 225.974 40.1768 226.115 39.5556C226.256 38.9344 226.443 38.3367 226.678 37.7624L227.996 38.1668C227.797 38.7645 227.633 39.3329 227.504 39.8721C227.375 40.3995 227.31 40.9386 227.31 41.4894C227.31 41.9113 227.328 42.3215 227.363 42.72C227.41 43.1185 227.486 43.4935 227.592 43.8452C227.697 44.1968 227.855 44.5132 228.066 44.7945L226.713 44.9175ZM223.97 45.4977C223.83 45.4977 223.736 45.4274 223.689 45.2867C223.642 45.1461 223.619 44.9527 223.619 44.7066C223.619 44.4605 223.642 44.2671 223.689 44.1264C223.736 43.9858 223.83 43.9155 223.97 43.9155V45.4977ZM235.485 45.4977V43.9155C235.626 43.9155 235.72 43.9858 235.767 44.1264C235.813 44.2671 235.837 44.4605 235.837 44.7066C235.837 44.9527 235.813 45.1461 235.767 45.2867C235.72 45.4274 235.626 45.4977 235.485 45.4977ZM235.49 45.4977V43.9155H237.951V34.4222H239.358V45.4977H235.49ZM235.49 45.4977C235.349 45.4977 235.256 45.4274 235.209 45.2867C235.162 45.1461 235.138 44.9527 235.138 44.7066C235.138 44.4605 235.162 44.2671 235.209 44.1264C235.256 43.9858 235.349 43.9155 235.49 43.9155V45.4977ZM242.879 45.4977V34.4222H244.286V45.4977H242.879ZM260.306 45.4977V43.9155H262.064V45.4977H260.306ZM255.717 49.7169C254.862 49.7169 254.165 49.6583 253.625 49.5411C253.098 49.4356 252.688 49.2364 252.395 48.9434C252.114 48.6621 251.92 48.2636 251.815 47.7479C251.721 47.2322 251.674 46.5759 251.674 45.779C251.674 45.2867 251.692 44.7769 251.727 44.2495C251.774 43.7221 251.838 43.2123 251.92 42.72C252.002 42.2161 252.096 41.7766 252.201 41.4015L253.502 41.6301C253.362 42.3215 253.256 42.9954 253.186 43.6518C253.116 44.2964 253.08 44.9058 253.08 45.4801C253.08 46.0309 253.092 46.5115 253.116 46.9217C253.151 47.3436 253.209 47.7479 253.291 48.1347H256.509C257.399 48.1347 258.02 48.0702 258.372 47.9413C258.724 47.8241 258.899 47.578 258.899 47.2029V37.235H260.306V46.1306C260.306 46.8572 260.241 47.4491 260.112 47.9062C259.995 48.375 259.773 48.7383 259.444 48.9961C259.128 49.2657 258.671 49.4532 258.073 49.5587C257.475 49.6642 256.69 49.7169 255.717 49.7169ZM262.064 45.4977V43.9155C262.205 43.9155 262.298 43.9858 262.345 44.1264C262.392 44.2671 262.415 44.4605 262.415 44.7066C262.415 44.9527 262.392 45.1461 262.345 45.2867C262.298 45.4274 262.205 45.4977 262.064 45.4977ZM256.069 35.1254C255.952 35.1254 255.817 35.0727 255.665 34.9672C255.512 34.85 255.378 34.7211 255.26 34.5804C255.155 34.4281 255.102 34.2874 255.102 34.1585C255.102 34.0413 255.155 33.9065 255.26 33.7542C255.378 33.6018 255.512 33.4729 255.665 33.3674C255.817 33.2502 255.952 33.1916 256.069 33.1916C256.198 33.1916 256.333 33.2502 256.473 33.3674C256.626 33.4729 256.755 33.6018 256.86 33.7542C256.977 33.9065 257.036 34.0413 257.036 34.1585C257.036 34.2757 256.977 34.4105 256.86 34.5629C256.755 34.7152 256.626 34.85 256.473 34.9672C256.321 35.0727 256.186 35.1254 256.069 35.1254ZM267.586 45.4977C266.883 45.4977 266.309 45.4274 265.863 45.2867C265.43 45.1461 265.084 44.9175 264.826 44.6011C264.568 44.2729 264.387 43.8334 264.281 43.2826C264.188 42.72 264.141 42.0227 264.141 41.1906C264.141 40.3702 264.188 39.6904 264.281 39.1513C264.387 38.6121 264.563 38.1902 264.809 37.8855C265.055 37.5808 265.406 37.364 265.863 37.235C266.321 37.1061 266.901 37.0417 267.604 37.0417C267.967 37.0417 268.342 37.0651 268.729 37.112C269.116 37.1471 269.485 37.2057 269.837 37.2878C270.188 37.3698 270.493 37.4636 270.751 37.5691L270.522 39.0458C270.007 38.9051 269.497 38.7997 268.993 38.7293C268.489 38.659 268.008 38.6239 267.551 38.6239C267.164 38.6239 266.807 38.6414 266.479 38.6766C266.151 38.7 265.869 38.7469 265.635 38.8172V42.6145C265.623 43.0833 265.752 43.4174 266.022 43.6166C266.303 43.8159 266.719 43.9155 267.27 43.9155H271.419V45.4977H267.586ZM262.066 45.4977V43.9155H266.233L267.586 45.4977H262.066ZM262.066 45.4977C261.926 45.4977 261.832 45.4274 261.785 45.2867C261.738 45.1461 261.715 44.9527 261.715 44.7066C261.715 44.4605 261.738 44.2671 261.785 44.1264C261.832 43.9858 261.926 43.9155 262.066 43.9155V45.4977ZM284.481 45.4977V43.9155H285.36V45.4977H284.481ZM277.045 45.4977V43.9155H283.145C282.817 42.7669 282.524 41.8352 282.266 41.1202C282.008 40.3936 281.745 39.8369 281.475 39.4501C281.206 39.0634 280.895 38.7997 280.543 38.659C280.192 38.5184 279.764 38.4481 279.26 38.4481C279.061 38.4481 278.838 38.4656 278.592 38.5008C278.346 38.5242 278.123 38.5653 277.924 38.6239L277.537 37.0768C277.842 37.0065 278.147 36.9538 278.451 36.9186C278.756 36.8834 279.026 36.8659 279.26 36.8659C279.881 36.8659 280.415 36.9127 280.86 37.0065C281.305 37.0885 281.692 37.2702 282.02 37.5515C282.348 37.821 282.653 38.2254 282.934 38.7645C283.216 39.3036 283.503 40.0186 283.796 40.9093C284.1 41.8 284.446 42.9193 284.833 44.2671V45.4977H277.045ZM285.36 45.4977V43.9155C285.501 43.9155 285.595 43.9858 285.642 44.1264C285.689 44.2671 285.712 44.4605 285.712 44.7066C285.712 44.9527 285.689 45.1461 285.642 45.2867C285.595 45.4274 285.501 45.4977 285.36 45.4977ZM285.363 45.4977V43.9155H288.616L287.824 44.7066V37.235H289.231V45.4977H285.363ZM285.363 45.4977C285.223 45.4977 285.129 45.4274 285.082 45.2867C285.035 45.1461 285.012 44.9527 285.012 44.7066C285.012 44.4605 285.035 44.2671 285.082 44.1264C285.129 43.9858 285.223 43.9155 285.363 43.9155V45.4977ZM286.137 48.4863C286.02 48.4863 285.885 48.4277 285.732 48.3105C285.58 48.205 285.451 48.0761 285.346 47.9237C285.228 47.7831 285.17 47.6483 285.17 47.5194C285.17 47.4022 285.228 47.2674 285.346 47.115C285.451 46.9627 285.58 46.8279 285.732 46.7107C285.885 46.6052 286.02 46.5525 286.137 46.5525C286.266 46.5525 286.4 46.6052 286.541 46.7107C286.693 46.8279 286.822 46.9627 286.928 47.115C287.045 47.2674 287.104 47.4022 287.104 47.5194C287.104 47.6366 287.045 47.7714 286.928 47.9237C286.822 48.0761 286.693 48.205 286.541 48.3105C286.389 48.4277 286.254 48.4863 286.137 48.4863ZM288.668 48.4863C288.551 48.4863 288.416 48.4277 288.264 48.3105C288.112 48.205 287.977 48.0761 287.86 47.9237C287.754 47.7831 287.701 47.6483 287.701 47.5194C287.701 47.4022 287.754 47.2674 287.86 47.115C287.977 46.9627 288.112 46.8279 288.264 46.7107C288.416 46.6052 288.551 46.5525 288.668 46.5525C288.797 46.5525 288.932 46.6052 289.073 46.7107C289.225 46.8279 289.354 46.9627 289.459 47.115C289.577 47.2674 289.635 47.4022 289.635 47.5194C289.635 47.6366 289.577 47.7714 289.459 47.9237C289.354 48.0761 289.225 48.205 289.073 48.3105C288.92 48.4277 288.786 48.4863 288.668 48.4863ZM302.509 45.6735C301.759 45.6735 301.144 45.6149 300.663 45.4977C300.183 45.3805 299.808 45.1754 299.538 44.8824C299.269 44.5894 299.081 44.1909 298.976 43.6869C298.87 43.183 298.818 42.5559 298.818 41.8059C298.818 41.0441 298.829 40.4405 298.853 39.9951C298.888 39.538 298.935 39.1454 298.993 38.8172H294.704V37.235H306.184V45.1285C305.48 45.3277 304.853 45.4684 304.303 45.5504C303.752 45.6325 303.154 45.6735 302.509 45.6735ZM302.597 45.4977L305.937 43.9155H308.416V45.4977H302.597ZM300.312 44.0561H303.968C304.285 44.0561 304.496 43.9917 304.601 43.8627C304.719 43.7338 304.777 43.476 304.777 43.0892V38.8172H301.121C300.804 38.8172 300.587 38.8817 300.47 39.0106C300.365 39.1395 300.312 39.3681 300.312 39.6962V44.0561ZM292.084 50.0509L291.487 48.8203C291.944 48.6094 292.301 48.3632 292.559 48.082C292.829 47.8007 293.016 47.4491 293.122 47.0271C293.239 46.6169 293.297 46.1071 293.297 45.4977V37.235H294.704V45.4977C294.704 46.2712 294.61 46.9392 294.423 47.5018C294.247 48.0761 293.965 48.5683 293.579 48.9785C293.204 49.4005 292.706 49.7579 292.084 50.0509ZM308.416 45.4977V43.9155C308.557 43.9155 308.651 43.9858 308.698 44.1264C308.744 44.2671 308.768 44.4605 308.768 44.7066C308.768 44.9527 308.744 45.1461 308.698 45.2867C308.651 45.4274 308.557 45.4977 308.416 45.4977ZM294.001 35.1254C293.883 35.1254 293.749 35.0727 293.596 34.9672C293.444 34.85 293.309 34.7211 293.192 34.5804C293.086 34.4281 293.034 34.2874 293.034 34.1585C293.034 34.0413 293.086 33.9065 293.192 33.7542C293.309 33.6018 293.444 33.4729 293.596 33.3674C293.749 33.2502 293.883 33.1916 294.001 33.1916C294.13 33.1916 294.264 33.2502 294.405 33.3674C294.557 33.4729 294.686 33.6018 294.792 33.7542C294.909 33.9065 294.967 34.0413 294.967 34.1585C294.967 34.2757 294.909 34.4105 294.792 34.5629C294.686 34.7152 294.557 34.85 294.405 34.9672C294.253 35.0727 294.118 35.1254 294.001 35.1254ZM308.42 45.4977V43.9155H310.881V34.4222H312.288V45.4977H308.42ZM308.42 45.4977C308.279 45.4977 308.186 45.4274 308.139 45.2867C308.092 45.1461 308.068 44.9527 308.068 44.7066C308.068 44.4605 308.092 44.2671 308.139 44.1264C308.186 43.9858 308.279 43.9155 308.42 43.9155V45.4977ZM315.809 45.4977V34.4222H317.216V45.4977H315.809ZM327.065 45.4977C326.456 45.4977 325.969 45.3805 325.606 45.1461C325.254 44.9117 324.997 44.5308 324.832 44.0034C324.68 43.476 324.604 42.7669 324.604 41.8762C324.604 41.3488 324.645 40.7979 324.727 40.2237C324.821 39.6494 324.944 39.1571 325.096 38.7469L326.432 38.9755C326.292 39.456 326.186 39.9189 326.116 40.3643C326.046 40.7979 326.01 41.2081 326.01 41.5949C326.01 42.0754 326.028 42.5032 326.063 42.8782C326.11 43.2416 326.186 43.5873 326.292 43.9155H331.724C331.665 43.5873 331.618 43.1947 331.583 42.7376C331.56 42.2805 331.548 41.6769 331.548 40.9269C331.548 40.1768 331.601 39.5497 331.706 39.0458C331.812 38.5418 331.999 38.1433 332.269 37.8503C332.538 37.5573 332.913 37.3522 333.394 37.235C333.875 37.1178 334.49 37.0592 335.24 37.0592C335.885 37.0592 336.482 37.1003 337.033 37.1823C337.584 37.2643 338.211 37.405 338.914 37.6042V45.4977H327.065ZM333.042 43.9155H336.699C337.004 43.9155 337.215 43.851 337.332 43.7221C337.449 43.5932 337.508 43.3646 337.508 43.0365V38.6766H333.851C333.535 38.6766 333.318 38.7411 333.201 38.87C333.095 38.9989 333.042 39.2567 333.042 39.6435V43.9155ZM335.732 35.1254C335.615 35.1254 335.48 35.0727 335.328 34.9672C335.175 34.85 335.041 34.7211 334.923 34.5804C334.818 34.4281 334.765 34.2874 334.765 34.1585C334.765 34.0413 334.818 33.9065 334.923 33.7542C335.041 33.6018 335.175 33.4729 335.328 33.3674C335.48 33.2502 335.615 33.1916 335.732 33.1916C335.861 33.1916 335.996 33.2502 336.137 33.3674C336.289 33.4729 336.418 33.6018 336.523 33.7542C336.64 33.9065 336.699 34.0413 336.699 34.1585C336.699 34.2757 336.64 34.4105 336.523 34.5629C336.418 34.7152 336.289 34.85 336.137 34.9672C335.984 35.0727 335.849 35.1254 335.732 35.1254ZM344.388 45.4977V43.9155H346.129V45.4977H344.388ZM341.769 50.0509L341.171 48.8203C341.628 48.6094 341.986 48.3632 342.243 48.082C342.513 47.8007 342.7 47.4491 342.806 47.0271C342.923 46.6169 342.982 46.1071 342.982 45.4977V37.235H344.388V45.4977C344.388 46.2712 344.294 46.9392 344.107 47.5018C343.931 48.0761 343.65 48.5683 343.263 48.9785C342.888 49.4005 342.39 49.7579 341.769 50.0509ZM346.129 45.4977V43.9155C346.269 43.9155 346.363 43.9858 346.41 44.1264C346.457 44.2671 346.48 44.4605 346.48 44.7066C346.48 44.9527 346.457 45.1461 346.41 45.2867C346.363 45.4274 346.269 45.4977 346.129 45.4977ZM351.641 45.4977C350.938 45.4977 350.364 45.4274 349.918 45.2867C349.485 45.1461 349.139 44.9175 348.881 44.6011C348.623 44.2729 348.442 43.8334 348.336 43.2826C348.242 42.72 348.195 42.0227 348.195 41.1906C348.195 40.3702 348.242 39.6904 348.336 39.1513C348.442 38.6121 348.617 38.1902 348.864 37.8855C349.11 37.5808 349.461 37.364 349.918 37.235C350.375 37.1061 350.956 37.0417 351.659 37.0417C352.022 37.0417 352.397 37.0651 352.784 37.112C353.171 37.1471 353.54 37.2057 353.891 37.2878C354.243 37.3698 354.548 37.4636 354.806 37.5691L354.577 39.0458C354.061 38.9051 353.552 38.7997 353.048 38.7293C352.544 38.659 352.063 38.6239 351.606 38.6239C351.219 38.6239 350.862 38.6414 350.534 38.6766C350.205 38.7 349.924 38.7469 349.69 38.8172V42.6145C349.678 43.0833 349.807 43.4174 350.077 43.6166C350.358 43.8159 350.774 43.9155 351.325 43.9155H355.474V45.4977H351.641ZM346.121 45.4977V43.9155H350.288L351.641 45.4977H346.121ZM346.121 45.4977C345.98 45.4977 345.887 45.4274 345.84 45.2867C345.793 45.1461 345.769 44.9527 345.769 44.7066C345.769 44.4605 345.793 44.2671 345.84 44.1264C345.887 43.9858 345.98 43.9155 346.121 43.9155V45.4977ZM358.111 45.4977V34.4222H359.518V45.4977H358.111Z" fill="white"/>
</svg>
