<svg width="266" height="327" viewBox="0 0 266 327" fill="none" xmlns="http://www.w3.org/2000/svg">
<path d="M219.566 0V69.5034C219.566 79.0993 215.705 87.7856 209.464 94.0762C204.685 98.8906 198.511 102.298 191.607 103.629V132.422C191.607 136.055 188.681 139.002 185.075 139.002V34.7504C185.075 15.5612 200.516 0 219.568 0H219.566Z" fill="white"/>
<path d="M115.575 0H116.23C134.905 0 150.068 15.2519 150.068 34.0378V173.495H149.412C130.737 173.495 115.575 158.243 115.575 139.457V0Z" fill="white"/>
<path d="M80.5667 34.493V138.744C80.5667 148.34 76.7059 157.027 70.4645 163.317C64.223 169.605 55.601 173.495 46.0737 173.495V103.991C46.0737 87.0506 58.1077 72.9426 74.0328 69.8684V41.0757C74.0328 37.4427 76.9581 34.4956 80.5642 34.4956L80.5667 34.493Z" fill="white"/>
<path d="M0.205657 227.128C0.205657 223.929 1.77152 222.225 4.97055 222.158H33.7001V230.192H9.53217V240.132H27.5726V243.196C27.6399 246.395 26.0067 247.961 22.6703 247.961H9.53077V259.945H33.6987V268.455H0.204254V227.128H0.205657Z" fill="white"/>
<path d="M67.3978 222.158H72.5034L91.361 253.955V222.158H100.688V268.458H90.8157L71.958 236.661V268.458H62.6315V227.128C62.6315 224.473 64.7427 222.158 67.3964 222.158H67.3978Z" fill="white"/>
<path d="M138.13 250.618C138.13 263.01 132.615 269.274 121.722 269.274C110.83 269.274 105.384 263.01 105.384 250.618C105.384 238.227 110.83 231.894 121.722 231.894C132.615 231.894 138.13 238.089 138.13 250.618ZM114.574 250.618C114.642 257.631 117.025 261.172 121.655 261.172C126.285 261.172 128.598 257.494 128.667 250.345C128.667 243.332 126.353 239.859 121.724 239.859C117.095 239.859 114.576 243.468 114.576 250.617L114.574 250.618Z" fill="white"/>
<path d="M152.493 238.907H151.54V258.857C151.54 260.354 152.424 261.172 154.195 261.172H156.986V268.049C154.059 268.321 150.858 268.321 147.455 267.98C144.051 267.639 142.416 265.529 142.485 261.512V222.158H147.183C149.566 222.158 151.54 224.337 151.54 226.72V232.439H156.986V234.413C156.986 237 155.012 238.907 152.493 238.907Z" fill="white"/>
<path d="M170.125 241.836H161.071C162.16 235.163 166.858 231.895 175.164 231.895C185.103 231.895 190.141 235.163 190.346 241.836V254.091C190.346 264.032 184.356 268.458 174.62 269.138C165.973 269.819 159.983 265.801 159.983 257.836C160.188 249.188 166.45 246.873 175.573 245.989C179.453 245.512 181.427 244.355 181.427 242.38C181.222 240.337 179.317 239.316 175.573 239.316C172.374 239.316 170.603 240.134 170.127 241.836H170.125ZM181.562 253.683V250.346C179.452 251.231 177 251.98 174.345 252.525C170.737 253.207 168.899 254.909 168.899 257.564C169.104 260.424 170.601 261.786 173.46 261.786C178.499 261.786 181.562 258.79 181.562 253.683Z" fill="white"/>
<path d="M199.397 222.158C202.393 222.158 203.823 223.655 203.754 226.584V229.24H194.7V222.158H199.397ZM199.397 232.439C202.324 232.439 203.754 233.869 203.754 236.797V268.458H194.7V232.439H199.397Z" fill="white"/>
<path d="M208.86 249.87C209.132 238.227 215.328 232.439 227.377 232.439H228.671V241.836H225.608C220.57 241.836 218.052 244.491 218.052 249.734V268.458H208.861V249.87H208.86Z" fill="white"/>
<path d="M248.959 269.275C238.066 268.935 232.62 262.603 232.62 250.348C232.62 238.092 238.135 231.964 249.094 231.895C260.532 231.895 265.91 238.908 265.228 253.002H241.945C242.286 258.518 244.667 261.309 249.093 261.309C251.204 261.309 253.178 260.423 254.947 258.722C255.764 257.838 256.785 257.428 258.01 257.428H264.682C262.708 265.054 257.806 269.275 248.956 269.275H248.959ZM242.082 246.534H255.63C255.085 241.769 252.839 239.316 248.959 239.316C245.078 239.316 242.764 241.767 242.082 246.534Z" fill="white"/>
<path d="M46.7023 247.078H58.0713C58.0713 251.889 54.1671 255.793 49.3574 255.793H37.9884C37.9884 250.983 41.8925 247.078 46.7023 247.078Z" fill="white"/>
<path d="M12.7322 319.768C10.2888 319.768 8.25614 319.623 6.6356 319.334C5.01366 319.046 3.73658 318.584 2.80435 317.952C1.87212 317.318 1.20484 316.469 0.805311 315.403C0.405783 314.336 0.205315 313.025 0.205315 311.47C0.205315 310.715 0.243167 309.96 0.321671 309.205C0.398772 308.45 0.526338 307.695 0.704373 306.939C0.882408 306.185 1.09269 305.451 1.33801 304.739L6.53608 305.572C6.24729 306.416 6.00758 307.238 5.81973 308.038C5.63048 308.837 5.53656 309.649 5.53656 310.471C5.53656 311.159 5.55898 311.77 5.60384 312.303C5.6487 312.836 5.72581 313.325 5.83655 313.77H15.1995C16.3771 313.77 17.3149 313.719 18.0144 313.62C18.714 313.52 19.2186 313.342 19.5298 313.087C19.841 312.832 19.9966 312.47 19.9966 312.005V310.105H25.3279V311.47C25.3279 313.025 25.1274 314.331 24.7279 315.386C24.3284 316.441 23.6555 317.29 22.712 317.935C21.7672 318.579 20.4803 319.046 18.8471 319.334C17.214 319.623 15.1771 319.768 12.7337 319.768H12.7322ZM9.60052 326.765C9.26688 326.765 8.87856 326.599 8.43417 326.265C7.98978 325.931 7.60148 325.543 7.26784 325.098C6.9342 324.654 6.76738 324.265 6.76738 323.932C6.76738 323.553 6.92859 323.148 7.25102 322.715C7.57204 322.282 7.95614 321.903 8.40053 321.582C8.84491 321.259 9.24445 321.098 9.60052 321.098C9.97762 321.098 10.3842 321.259 10.8159 321.582C11.2491 321.904 11.6262 322.282 11.9486 322.715C12.271 323.148 12.4322 323.553 12.4322 323.932C12.4322 324.265 12.2654 324.654 11.9318 325.098C11.5982 325.543 11.2154 325.931 10.7823 326.265C10.3491 326.599 9.95519 326.765 9.59912 326.765H9.60052ZM19.9952 310.103C18.7294 310.103 17.3962 310.009 15.9972 309.82C14.5981 309.632 13.2425 309.349 11.9318 308.97L12.7308 303.239C13.886 303.528 14.9248 303.745 15.8458 303.888C16.7668 304.032 17.706 304.105 18.6607 304.105H27.6564V310.103H19.9924H19.9952ZM15.9635 326.765C15.6299 326.765 15.2416 326.599 14.7972 326.265C14.3528 325.931 13.9645 325.543 13.6308 325.098C13.2972 324.654 13.1304 324.265 13.1304 323.932C13.1304 323.553 13.2916 323.148 13.614 322.715C13.935 322.282 14.3191 321.903 14.7635 321.582C15.2079 321.259 15.6075 321.098 15.9635 321.098C16.3406 321.098 16.7471 321.259 17.1789 321.582C17.6121 321.904 17.9892 322.282 18.3116 322.715C18.6326 323.148 18.7953 323.553 18.7953 323.932C18.7953 324.265 18.6284 324.654 18.2962 325.098C17.9626 325.543 17.5798 325.931 17.1467 326.265C16.7135 326.599 16.3196 326.765 15.9635 326.765ZM27.6577 310.103V304.105C27.8582 304.105 28.018 304.383 28.1414 304.938C28.2634 305.493 28.325 306.215 28.325 307.104C28.325 308.037 28.2634 308.77 28.1414 309.304C28.0194 309.837 27.8582 310.103 27.6577 310.103Z" fill="white"/>
<path d="M27.6591 310.103C27.4586 310.103 27.2988 309.837 27.1754 309.304C27.0535 308.771 26.9918 308.038 26.9918 307.104C26.9918 306.171 27.0535 305.493 27.1754 304.938C27.2974 304.383 27.4586 304.105 27.6591 304.105V310.103ZM27.6591 310.103V304.105H34.6894L31.9908 306.804V294.441H37.322V310.103H27.6591ZM34.6557 290.609C34.3221 290.609 33.9338 290.442 33.4894 290.109C33.045 289.775 32.6567 289.387 32.323 288.942C31.9894 288.498 31.824 288.109 31.824 287.776C31.824 287.398 31.9852 286.992 32.3076 286.559C32.6286 286.125 33.0127 285.748 33.4571 285.426C33.9015 285.105 34.3011 284.942 34.6571 284.942C35.0342 284.942 35.4408 285.103 35.8739 285.426C36.3071 285.748 36.6842 286.125 37.0066 286.559C37.3277 286.992 37.4903 287.397 37.4903 287.776C37.4903 288.109 37.3234 288.498 36.9898 288.942C36.6562 289.387 36.2735 289.775 35.8403 290.109C35.4071 290.442 35.0118 290.609 34.6571 290.609H34.6557Z" fill="white"/>
<path d="M48.6505 310.103C47.3847 310.103 46.2856 309.942 45.352 309.62C44.4198 309.299 43.6585 308.798 43.0698 308.119C42.481 307.442 42.0422 306.576 41.7534 305.52C41.4646 304.466 41.3203 303.215 41.3203 301.771C41.3203 300.416 41.4913 299.244 41.8361 298.256C42.1796 297.267 42.7025 296.457 43.402 295.823C44.1015 295.19 45.0015 294.719 46.1006 294.407C47.1996 294.096 48.4935 293.94 49.9823 293.94C51.6925 293.94 53.1645 294.04 54.3967 294.24C55.629 294.441 56.8233 294.784 57.9784 295.274V304.104L54.9799 310.102H48.6491L48.6505 310.103ZM50.55 319.534L46.9515 315.601C47.8178 314.867 48.6001 314.04 49.301 313.118C50.0005 312.195 50.6005 311.229 51.0996 310.218C51.6 309.207 51.9827 308.185 52.2491 307.152C52.5154 306.119 52.6486 305.102 52.6486 304.103H57.9798C57.9798 305.458 57.8018 306.829 57.4471 308.218C57.0911 309.606 56.592 310.967 55.9472 312.299C55.3023 313.632 54.5257 314.91 53.6145 316.131C52.7033 317.352 51.6813 318.485 50.5486 319.529L50.55 319.534ZM46.9851 304.105H51.3505C51.8383 304.105 52.1776 304.017 52.3668 303.839C52.5547 303.661 52.65 303.329 52.65 302.839V299.94H48.9519C48.1963 299.94 47.6805 300.03 47.4029 300.206C47.1253 300.384 46.9865 300.718 46.9865 301.206V304.105H46.9851Z" fill="white"/>
<path d="M62.8104 319.601L60.8786 314.802C61.766 314.423 62.4333 314.035 62.8777 313.635C63.3221 313.236 63.6277 312.69 63.7945 312.002C63.9613 311.313 64.044 310.368 64.044 309.17V294.441H69.3753V309.17C69.3753 311.058 69.158 312.656 68.7262 313.967C68.293 315.278 67.5991 316.383 66.6445 317.283C65.6898 318.183 64.4127 318.955 62.8132 319.599L62.8104 319.601ZM69.3402 300.44V294.442H74.8705V300.44H69.3402ZM74.3378 290.611C74.0042 290.611 73.6159 290.444 73.1715 290.11C72.7271 289.776 72.3388 289.388 72.0051 288.944C71.6715 288.499 71.5047 288.111 71.5047 287.777C71.5047 287.4 71.6659 286.993 71.9883 286.56C72.3093 286.127 72.6934 285.75 73.1378 285.427C73.5822 285.106 73.9817 284.943 74.3378 284.943C74.7149 284.943 75.1214 285.105 75.5532 285.427C75.9864 285.75 76.3635 286.127 76.6859 286.56C77.0069 286.993 77.1695 287.398 77.1695 287.777C77.1695 288.111 77.0027 288.499 76.6705 288.944C76.3368 289.388 75.9541 289.776 75.521 290.11C75.0878 290.444 74.6939 290.611 74.3378 290.611ZM74.8705 310.105V294.442H80.2017V304.107H82.5344V310.105H74.8705ZM80.7008 290.611C80.3672 290.611 79.9789 290.444 79.5345 290.11C79.0901 289.776 78.7018 289.388 78.3681 288.944C78.0345 288.499 77.8691 288.111 77.8691 287.777C77.8691 287.4 78.0303 286.993 78.3527 286.56C78.6737 286.127 79.0578 285.75 79.5022 285.427C79.9466 285.106 80.3461 284.943 80.7022 284.943C81.0793 284.943 81.4844 285.105 81.9176 285.427C82.3508 285.75 82.7279 286.127 83.0503 286.56C83.3713 286.993 83.5339 287.398 83.5339 287.777C83.5339 288.111 83.3671 288.499 83.0349 288.944C82.7012 289.388 82.3185 289.776 81.8854 290.11C81.4522 290.444 81.0583 290.611 80.7022 290.611H80.7008ZM82.533 310.105V304.107C82.7335 304.107 82.8933 304.384 83.0167 304.94C83.1386 305.495 83.2003 306.217 83.2003 307.106C83.2003 308.038 83.1386 308.771 83.0167 309.306C82.8947 309.838 82.7335 310.105 82.533 310.105Z" fill="white"/>
<path d="M82.5341 310.103C82.3337 310.103 82.1739 309.837 82.0505 309.304C81.9285 308.771 81.8669 308.038 81.8669 307.104C81.8669 306.171 81.9285 305.493 82.0505 304.938C82.1725 304.383 82.3337 304.105 82.5341 304.105V310.103ZM82.5341 310.103V304.105H99.0928V300.773H89.2308C87.9425 300.773 86.9486 300.401 86.2491 299.657C85.5495 298.912 85.1991 297.852 85.1991 296.474C85.1991 295.608 85.3322 294.681 85.5986 293.691C85.8649 292.702 86.2364 291.703 86.7145 290.692C87.1925 289.681 87.7532 288.715 88.3967 287.792C89.0401 286.871 89.7396 286.054 90.4952 285.343L94.726 287.642C94.3265 287.999 93.8933 288.475 93.4265 289.075C92.9597 289.675 92.5041 290.325 92.0611 291.024C91.6167 291.724 91.234 292.402 90.9116 293.057C90.5892 293.713 90.3733 294.285 90.2626 294.773H97.7596C99.4699 294.773 100.809 294.974 101.775 295.373C102.74 295.773 103.423 296.456 103.824 297.423C104.224 298.389 104.424 299.728 104.424 301.439V310.103H82.5341ZM104.424 310.103V304.105H106.757V310.103H104.424ZM106.757 310.103V304.105C106.957 304.105 107.117 304.383 107.24 304.938C107.362 305.493 107.424 306.215 107.424 307.104C107.424 308.037 107.362 308.77 107.24 309.304C107.118 309.837 106.957 310.103 106.757 310.103Z" fill="white"/>
<path d="M106.757 310.103C106.557 310.103 106.397 309.837 106.274 309.304C106.152 308.771 106.09 308.038 106.09 307.104C106.09 306.171 106.152 305.493 106.274 304.938C106.396 304.383 106.557 304.105 106.757 304.105V310.103ZM106.757 310.103V304.105H111.089V289.11H116.42V310.103H106.757Z" fill="white"/>
<path d="M129.847 310.604C127.537 310.604 125.727 310.381 124.416 309.938C123.105 309.493 122.184 308.794 121.65 307.839C121.118 306.884 120.851 305.629 120.851 304.073C120.851 302.918 120.973 301.879 121.217 300.958C121.461 300.037 121.905 299.242 122.55 298.576C123.194 297.91 124.116 297.376 125.316 296.976L133.08 294.41V289.112H138.411V294.444C138.411 295.577 138.388 296.438 138.344 297.026C138.299 297.615 138.188 298.032 138.01 298.276C137.832 298.521 137.532 298.709 137.11 298.842V299.075C137.753 299.896 138.215 300.731 138.492 301.575C138.77 302.419 138.909 303.364 138.909 304.407C138.909 306.607 138.209 308.19 136.81 309.156C135.411 310.122 133.089 310.605 129.847 310.605V310.604ZM126.415 297.807L121.217 293.509L124.983 289.009L132.979 295.641L126.415 297.807ZM126.515 304.606H132.013C132.501 304.606 132.829 304.539 132.996 304.405C133.162 304.272 133.245 304.094 133.245 303.873C133.245 303.717 133.178 303.545 133.045 303.357C132.911 303.169 132.7 302.985 132.411 302.807L130.545 301.275L126.513 302.541V304.607L126.515 304.606Z" fill="white"/>
<path d="M143.574 310.103V289.11H148.905V310.103H143.574Z" fill="white"/>
<path d="M165.531 319.468C164.176 319.468 163.054 319.156 162.167 318.534C161.278 317.911 160.622 316.957 160.201 315.668C159.779 314.38 159.568 312.724 159.568 310.703C159.568 309.771 159.605 308.854 159.684 307.954C159.761 307.054 159.879 306.166 160.034 305.289C160.19 304.411 160.389 303.539 160.634 302.672L165.765 303.472C165.476 304.449 165.259 305.399 165.116 306.321C164.972 307.243 164.899 308.159 164.899 309.07C164.899 309.981 164.921 310.82 164.966 311.519C165.011 312.219 165.111 312.87 165.266 313.468H181.692V310.102H187.023V312.268C187.023 313.911 186.74 315.267 186.173 316.334C185.607 317.401 184.735 318.189 183.557 318.699C182.38 319.21 180.87 319.466 179.027 319.466H165.533L165.531 319.468ZM177.692 310.103C176.426 310.103 175.327 309.942 174.394 309.62C173.46 309.299 172.7 308.798 172.111 308.119C171.523 307.442 171.084 306.576 170.795 305.52C170.506 304.466 170.362 303.215 170.362 301.771C170.362 300.417 170.534 299.244 170.878 298.256C171.221 297.268 171.744 296.457 172.444 295.823C173.143 295.19 174.043 294.719 175.142 294.407C176.241 294.096 177.535 293.94 179.024 293.94C180.734 293.94 182.206 294.04 183.438 294.24C184.671 294.441 185.865 294.784 187.02 295.274V310.102H177.691L177.692 310.103ZM175.526 290.609C175.193 290.609 174.804 290.442 174.36 290.109C173.916 289.775 173.527 289.387 173.194 288.942C172.86 288.498 172.693 288.109 172.693 287.776C172.693 287.398 172.854 286.992 173.177 286.559C173.498 286.125 173.882 285.748 174.326 285.426C174.771 285.105 175.17 284.942 175.526 284.942C175.903 284.942 176.31 285.103 176.742 285.426C177.175 285.748 177.552 286.125 177.874 286.559C178.195 286.992 178.358 287.397 178.358 287.776C178.358 288.109 178.191 288.498 177.858 288.942C177.524 289.387 177.141 289.775 176.708 290.109C176.275 290.442 175.881 290.609 175.525 290.609H175.526ZM176.025 304.105H180.391C180.879 304.105 181.218 304.017 181.407 303.839C181.595 303.661 181.69 303.329 181.69 302.839V299.94H177.992C177.237 299.94 176.721 300.03 176.443 300.206C176.166 300.384 176.027 300.718 176.027 301.206V304.105H176.025ZM181.889 290.609C181.556 290.609 181.167 290.442 180.723 290.109C180.279 289.775 179.89 289.387 179.557 288.942C179.223 288.498 179.056 288.109 179.056 287.776C179.056 287.398 179.217 286.992 179.54 286.559C179.861 286.125 180.245 285.748 180.689 285.426C181.134 285.105 181.533 284.942 181.889 284.942C182.266 284.942 182.673 285.103 183.105 285.426C183.538 285.748 183.915 286.125 184.237 286.559C184.558 286.992 184.721 287.397 184.721 287.776C184.721 288.109 184.554 288.498 184.222 288.942C183.888 289.387 183.506 289.775 183.072 290.109C182.639 290.442 182.245 290.609 181.889 290.609ZM187.02 310.103V304.105H189.353V310.103H187.02ZM189.353 310.103V304.105C189.553 304.105 189.713 304.383 189.836 304.938C189.958 305.493 190.02 306.215 190.02 307.104C190.02 308.037 189.958 308.77 189.836 309.304C189.714 309.837 189.553 310.103 189.353 310.103Z" fill="white"/>
<path d="M189.353 310.103C189.152 310.103 188.992 309.837 188.869 309.304C188.747 308.771 188.685 308.038 188.685 307.104C188.685 306.171 188.747 305.493 188.869 304.938C188.991 304.383 189.152 304.105 189.353 304.105V310.103ZM189.353 310.103V304.105H196.383L193.684 306.804V294.441H199.016V310.103H189.353ZM193.184 290.609C192.85 290.609 192.462 290.442 192.018 290.109C191.573 289.775 191.185 289.387 190.851 288.942C190.518 288.498 190.351 288.109 190.351 287.776C190.351 287.398 190.512 286.992 190.834 286.559C191.155 286.125 191.539 285.748 191.984 285.426C192.428 285.105 192.828 284.942 193.184 284.942C193.561 284.942 193.967 285.103 194.399 285.426C194.832 285.748 195.21 286.125 195.532 286.559C195.853 286.992 196.016 287.397 196.016 287.776C196.016 288.109 195.849 288.498 195.515 288.942C195.181 289.387 194.799 289.775 194.366 290.109C193.932 290.442 193.539 290.609 193.182 290.609H193.184ZM196.349 283.778C196.016 283.778 195.627 283.611 195.183 283.278C194.739 282.944 194.35 282.556 194.017 282.111C193.683 281.667 193.517 281.278 193.517 280.945C193.517 280.568 193.679 280.161 194.001 279.728C194.322 279.295 194.706 278.917 195.151 278.595C195.595 278.274 195.995 278.111 196.351 278.111C196.728 278.111 197.134 278.272 197.567 278.595C198.001 278.917 198.378 279.295 198.7 279.728C199.021 280.161 199.184 280.566 199.184 280.945C199.184 281.278 199.017 281.667 198.683 282.111C198.35 282.556 197.967 282.944 197.534 283.278C197.101 283.611 196.705 283.778 196.351 283.778H196.349ZM199.548 290.609C199.215 290.609 198.826 290.442 198.382 290.109C197.938 289.775 197.549 289.387 197.216 288.942C196.882 288.498 196.715 288.109 196.715 287.776C196.715 287.398 196.876 286.992 197.199 286.559C197.52 286.125 197.904 285.748 198.348 285.426C198.793 285.105 199.192 284.942 199.548 284.942C199.925 284.942 200.332 285.103 200.764 285.426C201.197 285.748 201.574 286.125 201.896 286.559C202.217 286.992 202.38 287.397 202.38 287.776C202.38 288.109 202.213 288.498 201.881 288.942C201.547 289.387 201.165 289.775 200.731 290.109C200.298 290.442 199.904 290.609 199.548 290.609Z" fill="white"/>
<path d="M210.344 310.103C209.078 310.103 207.979 309.942 207.045 309.62C206.113 309.299 205.352 308.798 204.763 308.119C204.174 307.442 203.736 306.576 203.447 305.52C203.158 304.466 203.014 303.215 203.014 301.771C203.014 300.416 203.185 299.244 203.53 298.256C203.873 297.267 204.396 296.457 205.096 295.823C205.795 295.19 206.695 294.719 207.794 294.407C208.893 294.096 210.187 293.94 211.676 293.94C213.386 293.94 214.858 294.04 216.09 294.24C217.322 294.441 218.517 294.784 219.672 295.274V304.104L216.673 310.102H210.343L210.344 310.103ZM212.244 319.534L208.645 315.601C209.511 314.867 210.294 314.04 210.994 313.118C211.694 312.195 212.294 311.229 212.793 310.218C213.294 309.207 213.676 308.185 213.943 307.152C214.209 306.119 214.342 305.102 214.342 304.103H219.673C219.673 305.458 219.495 306.829 219.141 308.218C218.785 309.606 218.286 310.967 217.641 312.299C216.996 313.632 216.219 314.91 215.308 316.131C214.397 317.352 213.375 318.485 212.242 319.529L212.244 319.534ZM208.679 304.105H213.044C213.532 304.105 213.871 304.017 214.06 303.839C214.248 303.661 214.344 303.329 214.344 302.839V299.94H210.645C209.89 299.94 209.374 300.03 209.096 300.206C208.819 300.384 208.68 300.718 208.68 301.206V304.105H208.679ZM217.342 310.103V304.105H222.34V310.103H217.342ZM222.34 310.103V304.105C222.54 304.105 222.7 304.383 222.823 304.938C222.945 305.493 223.007 306.215 223.007 307.104C223.007 308.037 222.945 308.77 222.823 309.304C222.701 309.837 222.54 310.103 222.34 310.103Z" fill="white"/>
<path d="M222.338 310.103C222.138 310.103 221.978 309.837 221.855 309.304C221.733 308.771 221.671 308.038 221.671 307.104C221.671 306.171 221.733 305.493 221.855 304.938C221.977 304.383 222.138 304.105 222.338 304.105V310.103ZM222.338 310.103V304.105H237.965V300.073C237.676 300.028 237.337 299.996 236.948 299.973C236.56 299.951 236.12 299.94 235.632 299.94C234.565 299.94 233.489 300.013 232.401 300.157C231.312 300.302 230.19 300.519 229.036 300.806L226.938 295.508C227.937 295.153 228.954 294.859 229.987 294.625C231.02 294.392 232.063 294.219 233.119 294.109C234.173 293.998 235.234 293.942 236.301 293.942C237.921 293.942 239.243 294.148 240.265 294.559C241.287 294.97 242.048 295.603 242.547 296.458C243.048 297.314 243.297 298.42 243.297 299.774V310.105H222.34L222.338 310.103ZM227.735 308.37C227.047 307.594 226.58 306.654 226.336 305.555C226.091 304.456 225.971 303.162 225.971 301.673C225.971 300.585 226.053 299.568 226.22 298.623C226.387 297.68 226.625 296.641 226.936 295.508L232.5 296.641C232.122 297.685 231.829 298.58 231.617 299.323C231.405 300.067 231.3 300.851 231.3 301.673C231.3 302.562 231.328 303.278 231.383 303.822C231.438 304.366 231.539 304.833 231.683 305.221C231.827 305.61 232.021 306.016 232.266 306.438L227.735 308.372V308.37ZM243.295 310.103V304.105H245.627V310.103H243.295ZM245.627 310.103V304.105C245.828 304.105 245.988 304.383 246.111 304.938C246.233 305.493 246.295 306.215 246.295 307.104C246.295 308.037 246.233 308.77 246.111 309.304C245.989 309.837 245.828 310.103 245.627 310.103Z" fill="white"/>
<path d="M245.627 310.103C245.427 310.103 245.267 309.837 245.144 309.304C245.022 308.771 244.96 308.038 244.96 307.104C244.96 306.171 245.022 305.493 245.144 304.938C245.266 304.383 245.427 304.105 245.627 304.105V310.103ZM245.627 310.103V304.105H249.959V289.11H255.29V310.103H245.627Z" fill="white"/>
<path d="M259.954 310.103V289.11H265.286V310.103H259.954Z" fill="white"/>
</svg>
